<mxfile host="drawio-plugin" modified="2024-03-27T00:39:53.431Z" agent="5.0 (Windows NT 10.0; Win64; x64) AppleWebKit/537.36 (KHTML, like Gecko) Chrome/111.0.0.0 Safari/537.36" etag="IbvQ6RDD4Bvk03sBWbZr" version="20.5.3" type="embed"><diagram id="R2lEEEUBdFMjLlhIrx00" name="Page-1"><mxGraphModel dx="1886" dy="630" grid="1" gridSize="10" guides="1" tooltips="1" connect="1" arrows="1" fold="1" page="1" pageScale="1" pageWidth="850" pageHeight="1100" math="0" shadow="0" extFonts="Permanent Marker^https://fonts.googleapis.com/css?family=Permanent+Marker"><root><mxCell id="0"/><mxCell id="1" parent="0"/><mxCell id="C-vyLk0tnHw3VtMMgP7b-23" value="user" style="shape=table;startSize=30;container=1;collapsible=1;childLayout=tableLayout;fixedRows=1;rowLines=0;fontStyle=1;align=center;resizeLast=1;" parent="1" vertex="1"><mxGeometry x="80" y="120" width="240" height="220" as="geometry"/></mxCell><mxCell id="C-vyLk0tnHw3VtMMgP7b-24" value="" style="shape=partialRectangle;collapsible=0;dropTarget=0;pointerEvents=0;fillColor=none;points=[[0,0.5],[1,0.5]];portConstraint=eastwest;top=0;left=0;right=0;bottom=1;" parent="C-vyLk0tnHw3VtMMgP7b-23" vertex="1"><mxGeometry y="30" width="240" height="30" as="geometry"/></mxCell><mxCell id="C-vyLk0tnHw3VtMMgP7b-25" value="PK" style="shape=partialRectangle;overflow=hidden;connectable=0;fillColor=none;top=0;left=0;bottom=0;right=0;fontStyle=1;" parent="C-vyLk0tnHw3VtMMgP7b-24" vertex="1"><mxGeometry width="30" height="30" as="geometry"><mxRectangle width="30" height="30" as="alternateBounds"/></mxGeometry></mxCell><mxCell id="C-vyLk0tnHw3VtMMgP7b-26" value="user_id int not null" style="shape=partialRectangle;overflow=hidden;connectable=0;fillColor=none;top=0;left=0;bottom=0;right=0;align=left;spacingLeft=6;fontStyle=5;" parent="C-vyLk0tnHw3VtMMgP7b-24" vertex="1"><mxGeometry x="30" width="210" height="30" as="geometry"><mxRectangle width="210" height="30" as="alternateBounds"/></mxGeometry></mxCell><mxCell id="C-vyLk0tnHw3VtMMgP7b-27" value="" style="shape=partialRectangle;collapsible=0;dropTarget=0;pointerEvents=0;fillColor=none;points=[[0,0.5],[1,0.5]];portConstraint=eastwest;top=0;left=0;right=0;bottom=0;" parent="C-vyLk0tnHw3VtMMgP7b-23" vertex="1"><mxGeometry y="60" width="240" height="30" as="geometry"/></mxCell><mxCell id="C-vyLk0tnHw3VtMMgP7b-28" value="" style="shape=partialRectangle;overflow=hidden;connectable=0;fillColor=none;top=0;left=0;bottom=0;right=0;" parent="C-vyLk0tnHw3VtMMgP7b-27" vertex="1"><mxGeometry width="30" height="30" as="geometry"><mxRectangle width="30" height="30" as="alternateBounds"/></mxGeometry></mxCell><mxCell id="C-vyLk0tnHw3VtMMgP7b-29" value="username text not null" style="shape=partialRectangle;overflow=hidden;connectable=0;fillColor=none;top=0;left=0;bottom=0;right=0;align=left;spacingLeft=6;" parent="C-vyLk0tnHw3VtMMgP7b-27" vertex="1"><mxGeometry x="30" width="210" height="30" as="geometry"><mxRectangle width="210" height="30" as="alternateBounds"/></mxGeometry></mxCell><mxCell id="QZGJcfFz6h8s44CO1jUE-10" value="" style="shape=tableRow;horizontal=0;startSize=0;swimlaneHead=0;swimlaneBody=0;fillColor=none;collapsible=0;dropTarget=0;points=[[0,0.5],[1,0.5]];portConstraint=eastwest;top=0;left=0;right=0;bottom=0;" parent="C-vyLk0tnHw3VtMMgP7b-23" vertex="1"><mxGeometry y="90" width="240" height="30" as="geometry"/></mxCell><mxCell id="QZGJcfFz6h8s44CO1jUE-11" value="" style="shape=partialRectangle;connectable=0;fillColor=none;top=0;left=0;bottom=0;right=0;editable=1;overflow=hidden;" parent="QZGJcfFz6h8s44CO1jUE-10" vertex="1"><mxGeometry width="30" height="30" as="geometry"><mxRectangle width="30" height="30" as="alternateBounds"/></mxGeometry></mxCell><mxCell id="QZGJcfFz6h8s44CO1jUE-12" value="avatar_url text not null" style="shape=partialRectangle;connectable=0;fillColor=none;top=0;left=0;bottom=0;right=0;align=left;spacingLeft=6;overflow=hidden;" parent="QZGJcfFz6h8s44CO1jUE-10" vertex="1"><mxGeometry x="30" width="210" height="30" as="geometry"><mxRectangle width="210" height="30" as="alternateBounds"/></mxGeometry></mxCell><mxCell id="QZGJcfFz6h8s44CO1jUE-17" value="" style="shape=tableRow;horizontal=0;startSize=0;swimlaneHead=0;swimlaneBody=0;fillColor=none;collapsible=0;dropTarget=0;points=[[0,0.5],[1,0.5]];portConstraint=eastwest;top=0;left=0;right=0;bottom=0;" parent="C-vyLk0tnHw3VtMMgP7b-23" vertex="1"><mxGeometry y="120" width="240" height="30" as="geometry"/></mxCell><mxCell id="QZGJcfFz6h8s44CO1jUE-18" value="" style="shape=partialRectangle;connectable=0;fillColor=none;top=0;left=0;bottom=0;right=0;editable=1;overflow=hidden;" parent="QZGJcfFz6h8s44CO1jUE-17" vertex="1"><mxGeometry width="30" height="30" as="geometry"><mxRectangle width="30" height="30" as="alternateBounds"/></mxGeometry></mxCell><mxCell id="QZGJcfFz6h8s44CO1jUE-19" value="is_teacher bool not null" style="shape=partialRectangle;connectable=0;fillColor=none;top=0;left=0;bottom=0;right=0;align=left;spacingLeft=6;overflow=hidden;" parent="QZGJcfFz6h8s44CO1jUE-17" vertex="1"><mxGeometry x="30" width="210" height="30" as="geometry"><mxRectangle width="210" height="30" as="alternateBounds"/></mxGeometry></mxCell><mxCell id="QZGJcfFz6h8s44CO1jUE-24" value="" style="shape=tableRow;horizontal=0;startSize=0;swimlaneHead=0;swimlaneBody=0;fillColor=none;collapsible=0;dropTarget=0;points=[[0,0.5],[1,0.5]];portConstraint=eastwest;top=0;left=0;right=0;bottom=0;" parent="C-vyLk0tnHw3VtMMgP7b-23" vertex="1"><mxGeometry y="150" width="240" height="30" as="geometry"/></mxCell><mxCell id="QZGJcfFz6h8s44CO1jUE-25" value="" style="shape=partialRectangle;connectable=0;fillColor=none;top=0;left=0;bottom=0;right=0;editable=1;overflow=hidden;" parent="QZGJcfFz6h8s44CO1jUE-24" vertex="1"><mxGeometry width="30" height="30" as="geometry"><mxRectangle width="30" height="30" as="alternateBounds"/></mxGeometry></mxCell><mxCell id="QZGJcfFz6h8s44CO1jUE-26" value="email text not null" style="shape=partialRectangle;connectable=0;fillColor=none;top=0;left=0;bottom=0;right=0;align=left;spacingLeft=6;overflow=hidden;" parent="QZGJcfFz6h8s44CO1jUE-24" vertex="1"><mxGeometry x="30" width="210" height="30" as="geometry"><mxRectangle width="210" height="30" as="alternateBounds"/></mxGeometry></mxCell><mxCell id="QZGJcfFz6h8s44CO1jUE-124" value="" style="shape=tableRow;horizontal=0;startSize=0;swimlaneHead=0;swimlaneBody=0;fillColor=none;collapsible=0;dropTarget=0;points=[[0,0.5],[1,0.5]];portConstraint=eastwest;top=0;left=0;right=0;bottom=0;" parent="C-vyLk0tnHw3VtMMgP7b-23" vertex="1"><mxGeometry y="180" width="240" height="30" as="geometry"/></mxCell><mxCell id="QZGJcfFz6h8s44CO1jUE-125" value="" style="shape=partialRectangle;connectable=0;fillColor=none;top=0;left=0;bottom=0;right=0;editable=1;overflow=hidden;" parent="QZGJcfFz6h8s44CO1jUE-124" vertex="1"><mxGeometry width="30" height="30" as="geometry"><mxRectangle width="30" height="30" as="alternateBounds"/></mxGeometry></mxCell><mxCell id="QZGJcfFz6h8s44CO1jUE-126" value="subscribe_count int not null default 0" style="shape=partialRectangle;connectable=0;fillColor=none;top=0;left=0;bottom=0;right=0;align=left;spacingLeft=6;overflow=hidden;" parent="QZGJcfFz6h8s44CO1jUE-124" vertex="1"><mxGeometry x="30" width="210" height="30" as="geometry"><mxRectangle width="210" height="30" as="alternateBounds"/></mxGeometry></mxCell><mxCell id="QZGJcfFz6h8s44CO1jUE-475" style="edgeStyle=orthogonalEdgeStyle;rounded=0;orthogonalLoop=1;jettySize=auto;html=1;entryX=0;entryY=0.5;entryDx=0;entryDy=0;" parent="1" source="QZGJcfFz6h8s44CO1jUE-467" target="QZGJcfFz6h8s44CO1jUE-461" edge="1"><mxGeometry relative="1" as="geometry"/></mxCell><mxCell id="QZGJcfFz6h8s44CO1jUE-352" style="edgeStyle=orthogonalEdgeStyle;rounded=0;orthogonalLoop=1;jettySize=auto;html=1;entryX=0;entryY=0.5;entryDx=0;entryDy=0;" parent="1" source="QZGJcfFz6h8s44CO1jUE-349" target="QZGJcfFz6h8s44CO1jUE-343" edge="1"><mxGeometry relative="1" as="geometry"/></mxCell><mxCell id="QZGJcfFz6h8s44CO1jUE-330" style="edgeStyle=orthogonalEdgeStyle;rounded=0;orthogonalLoop=1;jettySize=auto;html=1;entryX=0;entryY=0.5;entryDx=0;entryDy=0;" parent="1" source="QZGJcfFz6h8s44CO1jUE-270" target="QZGJcfFz6h8s44CO1jUE-264" edge="1"><mxGeometry relative="1" as="geometry"/></mxCell><mxCell id="QZGJcfFz6h8s44CO1jUE-27" value="user_private" style="shape=table;startSize=30;container=1;collapsible=1;childLayout=tableLayout;fixedRows=1;rowLines=0;fontStyle=1;align=center;resizeLast=1;" parent="1" vertex="1"><mxGeometry x="360" y="120" width="250" height="130" as="geometry"/></mxCell><mxCell id="QZGJcfFz6h8s44CO1jUE-43" value="" style="shape=tableRow;horizontal=0;startSize=0;swimlaneHead=0;swimlaneBody=0;fillColor=none;collapsible=0;dropTarget=0;points=[[0,0.5],[1,0.5]];portConstraint=eastwest;top=0;left=0;right=0;bottom=0;" parent="QZGJcfFz6h8s44CO1jUE-27" vertex="1"><mxGeometry y="30" width="250" height="30" as="geometry"/></mxCell><mxCell id="QZGJcfFz6h8s44CO1jUE-44" value="FK" style="shape=partialRectangle;connectable=0;fillColor=none;top=0;left=0;bottom=0;right=0;fontStyle=0;overflow=hidden;whiteSpace=wrap;html=1;" parent="QZGJcfFz6h8s44CO1jUE-43" vertex="1"><mxGeometry width="30" height="30" as="geometry"><mxRectangle width="30" height="30" as="alternateBounds"/></mxGeometry></mxCell><mxCell id="QZGJcfFz6h8s44CO1jUE-45" value="user_id int not null" style="shape=partialRectangle;connectable=0;fillColor=none;top=0;left=0;bottom=0;right=0;align=left;spacingLeft=6;fontStyle=0;overflow=hidden;whiteSpace=wrap;html=1;" parent="QZGJcfFz6h8s44CO1jUE-43" vertex="1"><mxGeometry x="30" width="220" height="30" as="geometry"><mxRectangle width="220" height="30" as="alternateBounds"/></mxGeometry></mxCell><mxCell id="QZGJcfFz6h8s44CO1jUE-50" value="" style="shape=tableRow;horizontal=0;startSize=0;swimlaneHead=0;swimlaneBody=0;fillColor=none;collapsible=0;dropTarget=0;points=[[0,0.5],[1,0.5]];portConstraint=eastwest;top=0;left=0;right=0;bottom=0;" parent="QZGJcfFz6h8s44CO1jUE-27" vertex="1"><mxGeometry y="60" width="250" height="30" as="geometry"/></mxCell><mxCell id="QZGJcfFz6h8s44CO1jUE-51" value="" style="shape=partialRectangle;connectable=0;fillColor=none;top=0;left=0;bottom=0;right=0;editable=1;overflow=hidden;" parent="QZGJcfFz6h8s44CO1jUE-50" vertex="1"><mxGeometry width="30" height="30" as="geometry"><mxRectangle width="30" height="30" as="alternateBounds"/></mxGeometry></mxCell><mxCell id="QZGJcfFz6h8s44CO1jUE-52" value="password text not null" style="shape=partialRectangle;connectable=0;fillColor=none;top=0;left=0;bottom=0;right=0;align=left;spacingLeft=6;overflow=hidden;" parent="QZGJcfFz6h8s44CO1jUE-50" vertex="1"><mxGeometry x="30" width="220" height="30" as="geometry"><mxRectangle width="220" height="30" as="alternateBounds"/></mxGeometry></mxCell><mxCell id="QZGJcfFz6h8s44CO1jUE-53" value="" style="shape=tableRow;horizontal=0;startSize=0;swimlaneHead=0;swimlaneBody=0;fillColor=none;collapsible=0;dropTarget=0;points=[[0,0.5],[1,0.5]];portConstraint=eastwest;top=0;left=0;right=0;bottom=0;" parent="QZGJcfFz6h8s44CO1jUE-27" vertex="1"><mxGeometry y="90" width="250" height="30" as="geometry"/></mxCell><mxCell id="QZGJcfFz6h8s44CO1jUE-54" value="" style="shape=partialRectangle;connectable=0;fillColor=none;top=0;left=0;bottom=0;right=0;editable=1;overflow=hidden;" parent="QZGJcfFz6h8s44CO1jUE-53" vertex="1"><mxGeometry width="30" height="30" as="geometry"><mxRectangle width="30" height="30" as="alternateBounds"/></mxGeometry></mxCell><mxCell id="QZGJcfFz6h8s44CO1jUE-55" value="token text" style="shape=partialRectangle;connectable=0;fillColor=none;top=0;left=0;bottom=0;right=0;align=left;spacingLeft=6;overflow=hidden;" parent="QZGJcfFz6h8s44CO1jUE-53" vertex="1"><mxGeometry x="30" width="220" height="30" as="geometry"><mxRectangle width="220" height="30" as="alternateBounds"/></mxGeometry></mxCell><mxCell id="QZGJcfFz6h8s44CO1jUE-46" style="edgeStyle=orthogonalEdgeStyle;rounded=0;orthogonalLoop=1;jettySize=auto;html=1;entryX=1;entryY=0.5;entryDx=0;entryDy=0;" parent="1" source="QZGJcfFz6h8s44CO1jUE-43" target="C-vyLk0tnHw3VtMMgP7b-24" edge="1"><mxGeometry relative="1" as="geometry"/></mxCell><mxCell id="QZGJcfFz6h8s44CO1jUE-56" value="User" style="text;html=1;align=center;verticalAlign=middle;resizable=0;points=[];autosize=1;strokeColor=none;fillColor=none;" parent="1" vertex="1"><mxGeometry x="310" y="58" width="50" height="30" as="geometry"/></mxCell><mxCell id="QZGJcfFz6h8s44CO1jUE-74" value="user_save_note" style="shape=table;startSize=30;container=1;collapsible=1;childLayout=tableLayout;fixedRows=1;rowLines=0;fontStyle=1;align=center;resizeLast=1;" parent="1" vertex="1"><mxGeometry x="80" y="370" width="240" height="160" as="geometry"/></mxCell><mxCell id="QZGJcfFz6h8s44CO1jUE-299" value="" style="shape=tableRow;horizontal=0;startSize=0;swimlaneHead=0;swimlaneBody=0;fillColor=none;collapsible=0;dropTarget=0;points=[[0,0.5],[1,0.5]];portConstraint=eastwest;top=0;left=0;right=0;bottom=1;" parent="QZGJcfFz6h8s44CO1jUE-74" vertex="1"><mxGeometry y="30" width="240" height="30" as="geometry"/></mxCell><mxCell id="QZGJcfFz6h8s44CO1jUE-300" value="PK" style="shape=partialRectangle;connectable=0;fillColor=none;top=0;left=0;bottom=0;right=0;fontStyle=1;overflow=hidden;whiteSpace=wrap;html=1;" parent="QZGJcfFz6h8s44CO1jUE-299" vertex="1"><mxGeometry width="30" height="30" as="geometry"><mxRectangle width="30" height="30" as="alternateBounds"/></mxGeometry></mxCell><mxCell id="QZGJcfFz6h8s44CO1jUE-301" value="user_save_note_id int not null" style="shape=partialRectangle;connectable=0;fillColor=none;top=0;left=0;bottom=0;right=0;align=left;spacingLeft=6;fontStyle=5;overflow=hidden;whiteSpace=wrap;html=1;" parent="QZGJcfFz6h8s44CO1jUE-299" vertex="1"><mxGeometry x="30" width="210" height="30" as="geometry"><mxRectangle width="210" height="30" as="alternateBounds"/></mxGeometry></mxCell><mxCell id="QZGJcfFz6h8s44CO1jUE-103" value="" style="shape=tableRow;horizontal=0;startSize=0;swimlaneHead=0;swimlaneBody=0;fillColor=none;collapsible=0;dropTarget=0;points=[[0,0.5],[1,0.5]];portConstraint=eastwest;top=0;left=0;right=0;bottom=0;" parent="QZGJcfFz6h8s44CO1jUE-74" vertex="1"><mxGeometry y="60" width="240" height="30" as="geometry"/></mxCell><mxCell id="QZGJcfFz6h8s44CO1jUE-104" value="FK" style="shape=partialRectangle;connectable=0;fillColor=none;top=0;left=0;bottom=0;right=0;fontStyle=0;overflow=hidden;whiteSpace=wrap;html=1;" parent="QZGJcfFz6h8s44CO1jUE-103" vertex="1"><mxGeometry width="30" height="30" as="geometry"><mxRectangle width="30" height="30" as="alternateBounds"/></mxGeometry></mxCell><mxCell id="QZGJcfFz6h8s44CO1jUE-105" value="note_id text not null" style="shape=partialRectangle;connectable=0;fillColor=none;top=0;left=0;bottom=0;right=0;align=left;spacingLeft=6;fontStyle=0;overflow=hidden;whiteSpace=wrap;html=1;" parent="QZGJcfFz6h8s44CO1jUE-103" vertex="1"><mxGeometry x="30" width="210" height="30" as="geometry"><mxRectangle width="210" height="30" as="alternateBounds"/></mxGeometry></mxCell><mxCell id="QZGJcfFz6h8s44CO1jUE-306" value="" style="shape=tableRow;horizontal=0;startSize=0;swimlaneHead=0;swimlaneBody=0;fillColor=none;collapsible=0;dropTarget=0;points=[[0,0.5],[1,0.5]];portConstraint=eastwest;top=0;left=0;right=0;bottom=0;" parent="QZGJcfFz6h8s44CO1jUE-74" vertex="1"><mxGeometry y="90" width="240" height="30" as="geometry"/></mxCell><mxCell id="QZGJcfFz6h8s44CO1jUE-307" value="FK" style="shape=partialRectangle;connectable=0;fillColor=none;top=0;left=0;bottom=0;right=0;fontStyle=0;overflow=hidden;whiteSpace=wrap;html=1;" parent="QZGJcfFz6h8s44CO1jUE-306" vertex="1"><mxGeometry width="30" height="30" as="geometry"><mxRectangle width="30" height="30" as="alternateBounds"/></mxGeometry></mxCell><mxCell id="QZGJcfFz6h8s44CO1jUE-308" value="author int not null" style="shape=partialRectangle;connectable=0;fillColor=none;top=0;left=0;bottom=0;right=0;align=left;spacingLeft=6;fontStyle=0;overflow=hidden;whiteSpace=wrap;html=1;" parent="QZGJcfFz6h8s44CO1jUE-306" vertex="1"><mxGeometry x="30" width="210" height="30" as="geometry"><mxRectangle width="210" height="30" as="alternateBounds"/></mxGeometry></mxCell><mxCell id="QZGJcfFz6h8s44CO1jUE-321" value="" style="shape=tableRow;horizontal=0;startSize=0;swimlaneHead=0;swimlaneBody=0;fillColor=none;collapsible=0;dropTarget=0;points=[[0,0.5],[1,0.5]];portConstraint=eastwest;top=0;left=0;right=0;bottom=0;" parent="QZGJcfFz6h8s44CO1jUE-74" vertex="1"><mxGeometry y="120" width="240" height="30" as="geometry"/></mxCell><mxCell id="QZGJcfFz6h8s44CO1jUE-322" value="" style="shape=partialRectangle;connectable=0;fillColor=none;top=0;left=0;bottom=0;right=0;editable=1;overflow=hidden;" parent="QZGJcfFz6h8s44CO1jUE-321" vertex="1"><mxGeometry width="30" height="30" as="geometry"><mxRectangle width="30" height="30" as="alternateBounds"/></mxGeometry></mxCell><mxCell id="QZGJcfFz6h8s44CO1jUE-323" value=" " style="shape=partialRectangle;connectable=0;fillColor=none;top=0;left=0;bottom=0;right=0;align=left;spacingLeft=6;overflow=hidden;" parent="QZGJcfFz6h8s44CO1jUE-321" vertex="1"><mxGeometry x="30" width="210" height="30" as="geometry"><mxRectangle width="210" height="30" as="alternateBounds"/></mxGeometry></mxCell><mxCell id="QZGJcfFz6h8s44CO1jUE-96" style="edgeStyle=orthogonalEdgeStyle;rounded=0;orthogonalLoop=1;jettySize=auto;html=1;entryX=0;entryY=0.5;entryDx=0;entryDy=0;" parent="1" target="C-vyLk0tnHw3VtMMgP7b-24" edge="1"><mxGeometry relative="1" as="geometry"><mxPoint x="80" y="415" as="sourcePoint"/></mxGeometry></mxCell><mxCell id="QZGJcfFz6h8s44CO1jUE-106" value="Note" style="text;html=1;align=center;verticalAlign=middle;resizable=0;points=[];autosize=1;strokeColor=none;fillColor=none;" parent="1" vertex="1"><mxGeometry x="250" y="540" width="50" height="30" as="geometry"/></mxCell><mxCell id="QZGJcfFz6h8s44CO1jUE-107" value="note" style="shape=table;startSize=30;container=1;collapsible=1;childLayout=tableLayout;fixedRows=1;rowLines=0;fontStyle=1;align=center;resizeLast=1;" parent="1" vertex="1"><mxGeometry x="80" y="580" width="240" height="310" as="geometry"/></mxCell><mxCell id="QZGJcfFz6h8s44CO1jUE-114" value="" style="shape=tableRow;horizontal=0;startSize=0;swimlaneHead=0;swimlaneBody=0;fillColor=none;collapsible=0;dropTarget=0;points=[[0,0.5],[1,0.5]];portConstraint=eastwest;top=0;left=0;right=0;bottom=1;" parent="QZGJcfFz6h8s44CO1jUE-107" vertex="1"><mxGeometry y="30" width="240" height="30" as="geometry"/></mxCell><mxCell id="QZGJcfFz6h8s44CO1jUE-115" value="PK" style="shape=partialRectangle;connectable=0;fillColor=none;top=0;left=0;bottom=0;right=0;fontStyle=1;overflow=hidden;whiteSpace=wrap;html=1;" parent="QZGJcfFz6h8s44CO1jUE-114" vertex="1"><mxGeometry width="30" height="30" as="geometry"><mxRectangle width="30" height="30" as="alternateBounds"/></mxGeometry></mxCell><mxCell id="QZGJcfFz6h8s44CO1jUE-116" value="note_id text not null" style="shape=partialRectangle;connectable=0;fillColor=none;top=0;left=0;bottom=0;right=0;align=left;spacingLeft=6;fontStyle=5;overflow=hidden;whiteSpace=wrap;html=1;" parent="QZGJcfFz6h8s44CO1jUE-114" vertex="1"><mxGeometry x="30" width="210" height="30" as="geometry"><mxRectangle width="210" height="30" as="alternateBounds"/></mxGeometry></mxCell><mxCell id="QZGJcfFz6h8s44CO1jUE-111" value="" style="shape=tableRow;horizontal=0;startSize=0;swimlaneHead=0;swimlaneBody=0;fillColor=none;collapsible=0;dropTarget=0;points=[[0,0.5],[1,0.5]];portConstraint=eastwest;top=0;left=0;right=0;bottom=0;" parent="QZGJcfFz6h8s44CO1jUE-107" vertex="1"><mxGeometry y="60" width="240" height="30" as="geometry"/></mxCell><mxCell id="QZGJcfFz6h8s44CO1jUE-112" value="FK" style="shape=partialRectangle;connectable=0;fillColor=none;top=0;left=0;bottom=0;right=0;fontStyle=0;overflow=hidden;whiteSpace=wrap;html=1;" parent="QZGJcfFz6h8s44CO1jUE-111" vertex="1"><mxGeometry width="30" height="30" as="geometry"><mxRectangle width="30" height="30" as="alternateBounds"/></mxGeometry></mxCell><mxCell id="QZGJcfFz6h8s44CO1jUE-113" value="author int not null" style="shape=partialRectangle;connectable=0;fillColor=none;top=0;left=0;bottom=0;right=0;align=left;spacingLeft=6;fontStyle=0;overflow=hidden;whiteSpace=wrap;html=1;" parent="QZGJcfFz6h8s44CO1jUE-111" vertex="1"><mxGeometry x="30" width="210" height="30" as="geometry"><mxRectangle width="210" height="30" as="alternateBounds"/></mxGeometry></mxCell><mxCell id="QZGJcfFz6h8s44CO1jUE-118" value="" style="shape=tableRow;horizontal=0;startSize=0;swimlaneHead=0;swimlaneBody=0;fillColor=none;collapsible=0;dropTarget=0;points=[[0,0.5],[1,0.5]];portConstraint=eastwest;top=0;left=0;right=0;bottom=0;" parent="QZGJcfFz6h8s44CO1jUE-107" vertex="1"><mxGeometry y="90" width="240" height="30" as="geometry"/></mxCell><mxCell id="QZGJcfFz6h8s44CO1jUE-119" value="" style="shape=partialRectangle;connectable=0;fillColor=none;top=0;left=0;bottom=0;right=0;editable=1;overflow=hidden;" parent="QZGJcfFz6h8s44CO1jUE-118" vertex="1"><mxGeometry width="30" height="30" as="geometry"><mxRectangle width="30" height="30" as="alternateBounds"/></mxGeometry></mxCell><mxCell id="QZGJcfFz6h8s44CO1jUE-120" value="like_count int not null default 0" style="shape=partialRectangle;connectable=0;fillColor=none;top=0;left=0;bottom=0;right=0;align=left;spacingLeft=6;overflow=hidden;" parent="QZGJcfFz6h8s44CO1jUE-118" vertex="1"><mxGeometry x="30" width="210" height="30" as="geometry"><mxRectangle width="210" height="30" as="alternateBounds"/></mxGeometry></mxCell><mxCell id="QZGJcfFz6h8s44CO1jUE-121" value="" style="shape=tableRow;horizontal=0;startSize=0;swimlaneHead=0;swimlaneBody=0;fillColor=none;collapsible=0;dropTarget=0;points=[[0,0.5],[1,0.5]];portConstraint=eastwest;top=0;left=0;right=0;bottom=0;" parent="QZGJcfFz6h8s44CO1jUE-107" vertex="1"><mxGeometry y="120" width="240" height="30" as="geometry"/></mxCell><mxCell id="QZGJcfFz6h8s44CO1jUE-122" value="" style="shape=partialRectangle;connectable=0;fillColor=none;top=0;left=0;bottom=0;right=0;editable=1;overflow=hidden;" parent="QZGJcfFz6h8s44CO1jUE-121" vertex="1"><mxGeometry width="30" height="30" as="geometry"><mxRectangle width="30" height="30" as="alternateBounds"/></mxGeometry></mxCell><mxCell id="QZGJcfFz6h8s44CO1jUE-123" value="save_count int not null default 0" style="shape=partialRectangle;connectable=0;fillColor=none;top=0;left=0;bottom=0;right=0;align=left;spacingLeft=6;overflow=hidden;" parent="QZGJcfFz6h8s44CO1jUE-121" vertex="1"><mxGeometry x="30" width="210" height="30" as="geometry"><mxRectangle width="210" height="30" as="alternateBounds"/></mxGeometry></mxCell><mxCell id="QZGJcfFz6h8s44CO1jUE-430" value="" style="shape=tableRow;horizontal=0;startSize=0;swimlaneHead=0;swimlaneBody=0;fillColor=none;collapsible=0;dropTarget=0;points=[[0,0.5],[1,0.5]];portConstraint=eastwest;top=0;left=0;right=0;bottom=0;" parent="QZGJcfFz6h8s44CO1jUE-107" vertex="1"><mxGeometry y="150" width="240" height="30" as="geometry"/></mxCell><mxCell id="QZGJcfFz6h8s44CO1jUE-431" value="" style="shape=partialRectangle;connectable=0;fillColor=none;top=0;left=0;bottom=0;right=0;editable=1;overflow=hidden;" parent="QZGJcfFz6h8s44CO1jUE-430" vertex="1"><mxGeometry width="30" height="30" as="geometry"><mxRectangle width="30" height="30" as="alternateBounds"/></mxGeometry></mxCell><mxCell id="QZGJcfFz6h8s44CO1jUE-432" value="view_count int not null default 0" style="shape=partialRectangle;connectable=0;fillColor=none;top=0;left=0;bottom=0;right=0;align=left;spacingLeft=6;overflow=hidden;" parent="QZGJcfFz6h8s44CO1jUE-430" vertex="1"><mxGeometry x="30" width="210" height="30" as="geometry"><mxRectangle width="210" height="30" as="alternateBounds"/></mxGeometry></mxCell><mxCell id="QZGJcfFz6h8s44CO1jUE-143" value="" style="shape=tableRow;horizontal=0;startSize=0;swimlaneHead=0;swimlaneBody=0;fillColor=none;collapsible=0;dropTarget=0;points=[[0,0.5],[1,0.5]];portConstraint=eastwest;top=0;left=0;right=0;bottom=0;" parent="QZGJcfFz6h8s44CO1jUE-107" vertex="1"><mxGeometry y="180" width="240" height="30" as="geometry"/></mxCell><mxCell id="QZGJcfFz6h8s44CO1jUE-144" value="FK" style="shape=partialRectangle;connectable=0;fillColor=none;top=0;left=0;bottom=0;right=0;fontStyle=0;overflow=hidden;whiteSpace=wrap;html=1;" parent="QZGJcfFz6h8s44CO1jUE-143" vertex="1"><mxGeometry width="30" height="30" as="geometry"><mxRectangle width="30" height="30" as="alternateBounds"/></mxGeometry></mxCell><mxCell id="QZGJcfFz6h8s44CO1jUE-145" value="collection_id int not null" style="shape=partialRectangle;connectable=0;fillColor=none;top=0;left=0;bottom=0;right=0;align=left;spacingLeft=6;fontStyle=0;overflow=hidden;whiteSpace=wrap;html=1;" parent="QZGJcfFz6h8s44CO1jUE-143" vertex="1"><mxGeometry x="30" width="210" height="30" as="geometry"><mxRectangle width="210" height="30" as="alternateBounds"/></mxGeometry></mxCell><mxCell id="QZGJcfFz6h8s44CO1jUE-249" value="" style="shape=tableRow;horizontal=0;startSize=0;swimlaneHead=0;swimlaneBody=0;fillColor=none;collapsible=0;dropTarget=0;points=[[0,0.5],[1,0.5]];portConstraint=eastwest;top=0;left=0;right=0;bottom=0;" parent="QZGJcfFz6h8s44CO1jUE-107" vertex="1"><mxGeometry y="210" width="240" height="30" as="geometry"/></mxCell><mxCell id="QZGJcfFz6h8s44CO1jUE-250" value="" style="shape=partialRectangle;connectable=0;fillColor=none;top=0;left=0;bottom=0;right=0;editable=1;overflow=hidden;" parent="QZGJcfFz6h8s44CO1jUE-249" vertex="1"><mxGeometry width="30" height="30" as="geometry"><mxRectangle width="30" height="30" as="alternateBounds"/></mxGeometry></mxCell><mxCell id="QZGJcfFz6h8s44CO1jUE-251" value="note_url text not null" style="shape=partialRectangle;connectable=0;fillColor=none;top=0;left=0;bottom=0;right=0;align=left;spacingLeft=6;overflow=hidden;" parent="QZGJcfFz6h8s44CO1jUE-249" vertex="1"><mxGeometry x="30" width="210" height="30" as="geometry"><mxRectangle width="210" height="30" as="alternateBounds"/></mxGeometry></mxCell><mxCell id="QZGJcfFz6h8s44CO1jUE-256" value="" style="shape=tableRow;horizontal=0;startSize=0;swimlaneHead=0;swimlaneBody=0;fillColor=none;collapsible=0;dropTarget=0;points=[[0,0.5],[1,0.5]];portConstraint=eastwest;top=0;left=0;right=0;bottom=0;" parent="QZGJcfFz6h8s44CO1jUE-107" vertex="1"><mxGeometry y="240" width="240" height="30" as="geometry"/></mxCell><mxCell id="QZGJcfFz6h8s44CO1jUE-257" value="" style="shape=partialRectangle;connectable=0;fillColor=none;top=0;left=0;bottom=0;right=0;editable=1;overflow=hidden;" parent="QZGJcfFz6h8s44CO1jUE-256" vertex="1"><mxGeometry width="30" height="30" as="geometry"><mxRectangle width="30" height="30" as="alternateBounds"/></mxGeometry></mxCell><mxCell id="QZGJcfFz6h8s44CO1jUE-258" value="upload_date date not null" style="shape=partialRectangle;connectable=0;fillColor=none;top=0;left=0;bottom=0;right=0;align=left;spacingLeft=6;overflow=hidden;" parent="QZGJcfFz6h8s44CO1jUE-256" vertex="1"><mxGeometry x="30" width="210" height="30" as="geometry"><mxRectangle width="210" height="30" as="alternateBounds"/></mxGeometry></mxCell><mxCell id="17" value="" style="shape=tableRow;horizontal=0;startSize=0;swimlaneHead=0;swimlaneBody=0;fillColor=none;collapsible=0;dropTarget=0;points=[[0,0.5],[1,0.5]];portConstraint=eastwest;top=0;left=0;right=0;bottom=0;" parent="QZGJcfFz6h8s44CO1jUE-107" vertex="1"><mxGeometry y="270" width="240" height="30" as="geometry"/></mxCell><mxCell id="18" value="" style="shape=partialRectangle;connectable=0;fillColor=none;top=0;left=0;bottom=0;right=0;editable=1;overflow=hidden;" parent="17" vertex="1"><mxGeometry width="30" height="30" as="geometry"><mxRectangle width="30" height="30" as="alternateBounds"/></mxGeometry></mxCell><mxCell id="19" value="title text not null" style="shape=partialRectangle;connectable=0;fillColor=none;top=0;left=0;bottom=0;right=0;align=left;spacingLeft=6;overflow=hidden;" parent="17" vertex="1"><mxGeometry x="30" width="210" height="30" as="geometry"><mxRectangle width="210" height="30" as="alternateBounds"/></mxGeometry></mxCell><mxCell id="QZGJcfFz6h8s44CO1jUE-117" style="edgeStyle=orthogonalEdgeStyle;rounded=0;orthogonalLoop=1;jettySize=auto;html=1;entryX=0;entryY=0.5;entryDx=0;entryDy=0;" parent="1" source="QZGJcfFz6h8s44CO1jUE-111" target="C-vyLk0tnHw3VtMMgP7b-24" edge="1"><mxGeometry relative="1" as="geometry"/></mxCell><mxCell id="QZGJcfFz6h8s44CO1jUE-162" value="collection    " style="shape=table;startSize=30;container=1;collapsible=1;childLayout=tableLayout;fixedRows=1;rowLines=0;fontStyle=1;align=center;resizeLast=1;" parent="1" vertex="1"><mxGeometry x="-300" y="530" width="240" height="130" as="geometry"/></mxCell><mxCell id="QZGJcfFz6h8s44CO1jUE-163" value="" style="shape=tableRow;horizontal=0;startSize=0;swimlaneHead=0;swimlaneBody=0;fillColor=none;collapsible=0;dropTarget=0;points=[[0,0.5],[1,0.5]];portConstraint=eastwest;top=0;left=0;right=0;bottom=1;" parent="QZGJcfFz6h8s44CO1jUE-162" vertex="1"><mxGeometry y="30" width="240" height="30" as="geometry"/></mxCell><mxCell id="QZGJcfFz6h8s44CO1jUE-164" value="PK" style="shape=partialRectangle;connectable=0;fillColor=none;top=0;left=0;bottom=0;right=0;fontStyle=1;overflow=hidden;whiteSpace=wrap;html=1;" parent="QZGJcfFz6h8s44CO1jUE-163" vertex="1"><mxGeometry width="30" height="30" as="geometry"><mxRectangle width="30" height="30" as="alternateBounds"/></mxGeometry></mxCell><mxCell id="QZGJcfFz6h8s44CO1jUE-165" value="collection_id int not null" style="shape=partialRectangle;connectable=0;fillColor=none;top=0;left=0;bottom=0;right=0;align=left;spacingLeft=6;fontStyle=5;overflow=hidden;whiteSpace=wrap;html=1;" parent="QZGJcfFz6h8s44CO1jUE-163" vertex="1"><mxGeometry x="30" width="210" height="30" as="geometry"><mxRectangle width="210" height="30" as="alternateBounds"/></mxGeometry></mxCell><mxCell id="QZGJcfFz6h8s44CO1jUE-166" value="" style="shape=tableRow;horizontal=0;startSize=0;swimlaneHead=0;swimlaneBody=0;fillColor=none;collapsible=0;dropTarget=0;points=[[0,0.5],[1,0.5]];portConstraint=eastwest;top=0;left=0;right=0;bottom=0;" parent="QZGJcfFz6h8s44CO1jUE-162" vertex="1"><mxGeometry y="60" width="240" height="30" as="geometry"/></mxCell><mxCell id="QZGJcfFz6h8s44CO1jUE-167" value="" style="shape=partialRectangle;connectable=0;fillColor=none;top=0;left=0;bottom=0;right=0;fontStyle=0;overflow=hidden;whiteSpace=wrap;html=1;" parent="QZGJcfFz6h8s44CO1jUE-166" vertex="1"><mxGeometry width="30" height="30" as="geometry"><mxRectangle width="30" height="30" as="alternateBounds"/></mxGeometry></mxCell><mxCell id="QZGJcfFz6h8s44CO1jUE-168" value="collection_name text not null&amp;nbsp;" style="shape=partialRectangle;connectable=0;fillColor=none;top=0;left=0;bottom=0;right=0;align=left;spacingLeft=6;fontStyle=0;overflow=hidden;whiteSpace=wrap;html=1;" parent="QZGJcfFz6h8s44CO1jUE-166" vertex="1"><mxGeometry x="30" width="210" height="30" as="geometry"><mxRectangle width="210" height="30" as="alternateBounds"/></mxGeometry></mxCell><mxCell id="QZGJcfFz6h8s44CO1jUE-178" value="" style="shape=tableRow;horizontal=0;startSize=0;swimlaneHead=0;swimlaneBody=0;fillColor=none;collapsible=0;dropTarget=0;points=[[0,0.5],[1,0.5]];portConstraint=eastwest;top=0;left=0;right=0;bottom=0;" parent="QZGJcfFz6h8s44CO1jUE-162" vertex="1"><mxGeometry y="90" width="240" height="30" as="geometry"/></mxCell><mxCell id="QZGJcfFz6h8s44CO1jUE-179" value="FK" style="shape=partialRectangle;connectable=0;fillColor=none;top=0;left=0;bottom=0;right=0;editable=1;overflow=hidden;" parent="QZGJcfFz6h8s44CO1jUE-178" vertex="1"><mxGeometry width="30" height="30" as="geometry"><mxRectangle width="30" height="30" as="alternateBounds"/></mxGeometry></mxCell><mxCell id="QZGJcfFz6h8s44CO1jUE-180" value="author int not null" style="shape=partialRectangle;connectable=0;fillColor=none;top=0;left=0;bottom=0;right=0;align=left;spacingLeft=6;overflow=hidden;" parent="QZGJcfFz6h8s44CO1jUE-178" vertex="1"><mxGeometry x="30" width="210" height="30" as="geometry"><mxRectangle width="210" height="30" as="alternateBounds"/></mxGeometry></mxCell><mxCell id="QZGJcfFz6h8s44CO1jUE-181" style="edgeStyle=orthogonalEdgeStyle;rounded=0;orthogonalLoop=1;jettySize=auto;html=1;entryX=0;entryY=0.5;entryDx=0;entryDy=0;" parent="1" source="QZGJcfFz6h8s44CO1jUE-178" target="C-vyLk0tnHw3VtMMgP7b-24" edge="1"><mxGeometry relative="1" as="geometry"/></mxCell><mxCell id="QZGJcfFz6h8s44CO1jUE-182" value="note_tag" style="shape=table;startSize=30;container=1;collapsible=1;childLayout=tableLayout;fixedRows=1;rowLines=0;fontStyle=1;align=center;resizeLast=1;" parent="1" vertex="1"><mxGeometry x="365" y="580" width="240" height="130" as="geometry"/></mxCell><mxCell id="QZGJcfFz6h8s44CO1jUE-183" value="" style="shape=tableRow;horizontal=0;startSize=0;swimlaneHead=0;swimlaneBody=0;fillColor=none;collapsible=0;dropTarget=0;points=[[0,0.5],[1,0.5]];portConstraint=eastwest;top=0;left=0;right=0;bottom=1;" parent="QZGJcfFz6h8s44CO1jUE-182" vertex="1"><mxGeometry y="30" width="240" height="30" as="geometry"/></mxCell><mxCell id="QZGJcfFz6h8s44CO1jUE-184" value="PK" style="shape=partialRectangle;connectable=0;fillColor=none;top=0;left=0;bottom=0;right=0;fontStyle=1;overflow=hidden;whiteSpace=wrap;html=1;" parent="QZGJcfFz6h8s44CO1jUE-183" vertex="1"><mxGeometry width="30" height="30" as="geometry"><mxRectangle width="30" height="30" as="alternateBounds"/></mxGeometry></mxCell><mxCell id="QZGJcfFz6h8s44CO1jUE-185" value="note_tag_id int not null" style="shape=partialRectangle;connectable=0;fillColor=none;top=0;left=0;bottom=0;right=0;align=left;spacingLeft=6;fontStyle=5;overflow=hidden;whiteSpace=wrap;html=1;" parent="QZGJcfFz6h8s44CO1jUE-183" vertex="1"><mxGeometry x="30" width="210" height="30" as="geometry"><mxRectangle width="210" height="30" as="alternateBounds"/></mxGeometry></mxCell><mxCell id="QZGJcfFz6h8s44CO1jUE-186" value="" style="shape=tableRow;horizontal=0;startSize=0;swimlaneHead=0;swimlaneBody=0;fillColor=none;collapsible=0;dropTarget=0;points=[[0,0.5],[1,0.5]];portConstraint=eastwest;top=0;left=0;right=0;bottom=0;" parent="QZGJcfFz6h8s44CO1jUE-182" vertex="1"><mxGeometry y="60" width="240" height="30" as="geometry"/></mxCell><mxCell id="QZGJcfFz6h8s44CO1jUE-187" value="FK" style="shape=partialRectangle;connectable=0;fillColor=none;top=0;left=0;bottom=0;right=0;fontStyle=0;overflow=hidden;whiteSpace=wrap;html=1;" parent="QZGJcfFz6h8s44CO1jUE-186" vertex="1"><mxGeometry width="30" height="30" as="geometry"><mxRectangle width="30" height="30" as="alternateBounds"/></mxGeometry></mxCell><mxCell id="QZGJcfFz6h8s44CO1jUE-188" value="note_id text not null" style="shape=partialRectangle;connectable=0;fillColor=none;top=0;left=0;bottom=0;right=0;align=left;spacingLeft=6;fontStyle=0;overflow=hidden;whiteSpace=wrap;html=1;" parent="QZGJcfFz6h8s44CO1jUE-186" vertex="1"><mxGeometry x="30" width="210" height="30" as="geometry"><mxRectangle width="210" height="30" as="alternateBounds"/></mxGeometry></mxCell><mxCell id="QZGJcfFz6h8s44CO1jUE-201" value="" style="shape=tableRow;horizontal=0;startSize=0;swimlaneHead=0;swimlaneBody=0;fillColor=none;collapsible=0;dropTarget=0;points=[[0,0.5],[1,0.5]];portConstraint=eastwest;top=0;left=0;right=0;bottom=0;" parent="QZGJcfFz6h8s44CO1jUE-182" vertex="1"><mxGeometry y="90" width="240" height="30" as="geometry"/></mxCell><mxCell id="QZGJcfFz6h8s44CO1jUE-202" value="" style="shape=partialRectangle;connectable=0;fillColor=none;top=0;left=0;bottom=0;right=0;editable=1;overflow=hidden;" parent="QZGJcfFz6h8s44CO1jUE-201" vertex="1"><mxGeometry width="30" height="30" as="geometry"><mxRectangle width="30" height="30" as="alternateBounds"/></mxGeometry></mxCell><mxCell id="QZGJcfFz6h8s44CO1jUE-203" value="tag_text text not null" style="shape=partialRectangle;connectable=0;fillColor=none;top=0;left=0;bottom=0;right=0;align=left;spacingLeft=6;overflow=hidden;" parent="QZGJcfFz6h8s44CO1jUE-201" vertex="1"><mxGeometry x="30" width="210" height="30" as="geometry"><mxRectangle width="210" height="30" as="alternateBounds"/></mxGeometry></mxCell><mxCell id="QZGJcfFz6h8s44CO1jUE-204" style="edgeStyle=orthogonalEdgeStyle;rounded=0;orthogonalLoop=1;jettySize=auto;html=1;entryX=1;entryY=0.5;entryDx=0;entryDy=0;" parent="1" source="QZGJcfFz6h8s44CO1jUE-182" target="QZGJcfFz6h8s44CO1jUE-114" edge="1"><mxGeometry relative="1" as="geometry"><Array as="points"><mxPoint x="350" y="595"/><mxPoint x="350" y="575"/></Array></mxGeometry></mxCell><mxCell id="QZGJcfFz6h8s44CO1jUE-205" value="video" style="shape=table;startSize=30;container=1;collapsible=1;childLayout=tableLayout;fixedRows=1;rowLines=0;fontStyle=1;align=center;resizeLast=1;" parent="1" vertex="1"><mxGeometry x="80" y="940" width="240" height="340" as="geometry"/></mxCell><mxCell id="QZGJcfFz6h8s44CO1jUE-206" value="" style="shape=tableRow;horizontal=0;startSize=0;swimlaneHead=0;swimlaneBody=0;fillColor=none;collapsible=0;dropTarget=0;points=[[0,0.5],[1,0.5]];portConstraint=eastwest;top=0;left=0;right=0;bottom=1;" parent="QZGJcfFz6h8s44CO1jUE-205" vertex="1"><mxGeometry y="30" width="240" height="30" as="geometry"/></mxCell><mxCell id="QZGJcfFz6h8s44CO1jUE-207" value="PK" style="shape=partialRectangle;connectable=0;fillColor=none;top=0;left=0;bottom=0;right=0;fontStyle=1;overflow=hidden;whiteSpace=wrap;html=1;" parent="QZGJcfFz6h8s44CO1jUE-206" vertex="1"><mxGeometry width="30" height="30" as="geometry"><mxRectangle width="30" height="30" as="alternateBounds"/></mxGeometry></mxCell><mxCell id="QZGJcfFz6h8s44CO1jUE-208" value="video_id text not null" style="shape=partialRectangle;connectable=0;fillColor=none;top=0;left=0;bottom=0;right=0;align=left;spacingLeft=6;fontStyle=5;overflow=hidden;whiteSpace=wrap;html=1;" parent="QZGJcfFz6h8s44CO1jUE-206" vertex="1"><mxGeometry x="30" width="210" height="30" as="geometry"><mxRectangle width="210" height="30" as="alternateBounds"/></mxGeometry></mxCell><mxCell id="QZGJcfFz6h8s44CO1jUE-209" value="" style="shape=tableRow;horizontal=0;startSize=0;swimlaneHead=0;swimlaneBody=0;fillColor=none;collapsible=0;dropTarget=0;points=[[0,0.5],[1,0.5]];portConstraint=eastwest;top=0;left=0;right=0;bottom=0;" parent="QZGJcfFz6h8s44CO1jUE-205" vertex="1"><mxGeometry y="60" width="240" height="30" as="geometry"/></mxCell><mxCell id="QZGJcfFz6h8s44CO1jUE-210" value="FK" style="shape=partialRectangle;connectable=0;fillColor=none;top=0;left=0;bottom=0;right=0;fontStyle=0;overflow=hidden;whiteSpace=wrap;html=1;" parent="QZGJcfFz6h8s44CO1jUE-209" vertex="1"><mxGeometry width="30" height="30" as="geometry"><mxRectangle width="30" height="30" as="alternateBounds"/></mxGeometry></mxCell><mxCell id="QZGJcfFz6h8s44CO1jUE-211" value="author int not null" style="shape=partialRectangle;connectable=0;fillColor=none;top=0;left=0;bottom=0;right=0;align=left;spacingLeft=6;fontStyle=0;overflow=hidden;whiteSpace=wrap;html=1;" parent="QZGJcfFz6h8s44CO1jUE-209" vertex="1"><mxGeometry x="30" width="210" height="30" as="geometry"><mxRectangle width="210" height="30" as="alternateBounds"/></mxGeometry></mxCell><mxCell id="QZGJcfFz6h8s44CO1jUE-212" value="" style="shape=tableRow;horizontal=0;startSize=0;swimlaneHead=0;swimlaneBody=0;fillColor=none;collapsible=0;dropTarget=0;points=[[0,0.5],[1,0.5]];portConstraint=eastwest;top=0;left=0;right=0;bottom=0;" parent="QZGJcfFz6h8s44CO1jUE-205" vertex="1"><mxGeometry y="90" width="240" height="30" as="geometry"/></mxCell><mxCell id="QZGJcfFz6h8s44CO1jUE-213" value="" style="shape=partialRectangle;connectable=0;fillColor=none;top=0;left=0;bottom=0;right=0;editable=1;overflow=hidden;" parent="QZGJcfFz6h8s44CO1jUE-212" vertex="1"><mxGeometry width="30" height="30" as="geometry"><mxRectangle width="30" height="30" as="alternateBounds"/></mxGeometry></mxCell><mxCell id="QZGJcfFz6h8s44CO1jUE-214" value="like_count int not null default 0" style="shape=partialRectangle;connectable=0;fillColor=none;top=0;left=0;bottom=0;right=0;align=left;spacingLeft=6;overflow=hidden;" parent="QZGJcfFz6h8s44CO1jUE-212" vertex="1"><mxGeometry x="30" width="210" height="30" as="geometry"><mxRectangle width="210" height="30" as="alternateBounds"/></mxGeometry></mxCell><mxCell id="QZGJcfFz6h8s44CO1jUE-215" value="" style="shape=tableRow;horizontal=0;startSize=0;swimlaneHead=0;swimlaneBody=0;fillColor=none;collapsible=0;dropTarget=0;points=[[0,0.5],[1,0.5]];portConstraint=eastwest;top=0;left=0;right=0;bottom=0;" parent="QZGJcfFz6h8s44CO1jUE-205" vertex="1"><mxGeometry y="120" width="240" height="30" as="geometry"/></mxCell><mxCell id="QZGJcfFz6h8s44CO1jUE-216" value="" style="shape=partialRectangle;connectable=0;fillColor=none;top=0;left=0;bottom=0;right=0;editable=1;overflow=hidden;" parent="QZGJcfFz6h8s44CO1jUE-215" vertex="1"><mxGeometry width="30" height="30" as="geometry"><mxRectangle width="30" height="30" as="alternateBounds"/></mxGeometry></mxCell><mxCell id="QZGJcfFz6h8s44CO1jUE-217" value="save_count int not null default 0" style="shape=partialRectangle;connectable=0;fillColor=none;top=0;left=0;bottom=0;right=0;align=left;spacingLeft=6;overflow=hidden;" parent="QZGJcfFz6h8s44CO1jUE-215" vertex="1"><mxGeometry x="30" width="210" height="30" as="geometry"><mxRectangle width="210" height="30" as="alternateBounds"/></mxGeometry></mxCell><mxCell id="QZGJcfFz6h8s44CO1jUE-433" value="" style="shape=tableRow;horizontal=0;startSize=0;swimlaneHead=0;swimlaneBody=0;fillColor=none;collapsible=0;dropTarget=0;points=[[0,0.5],[1,0.5]];portConstraint=eastwest;top=0;left=0;right=0;bottom=0;" parent="QZGJcfFz6h8s44CO1jUE-205" vertex="1"><mxGeometry y="150" width="240" height="30" as="geometry"/></mxCell><mxCell id="QZGJcfFz6h8s44CO1jUE-434" value="" style="shape=partialRectangle;connectable=0;fillColor=none;top=0;left=0;bottom=0;right=0;editable=1;overflow=hidden;" parent="QZGJcfFz6h8s44CO1jUE-433" vertex="1"><mxGeometry width="30" height="30" as="geometry"><mxRectangle width="30" height="30" as="alternateBounds"/></mxGeometry></mxCell><mxCell id="QZGJcfFz6h8s44CO1jUE-435" value="view_count int not null default 0" style="shape=partialRectangle;connectable=0;fillColor=none;top=0;left=0;bottom=0;right=0;align=left;spacingLeft=6;overflow=hidden;" parent="QZGJcfFz6h8s44CO1jUE-433" vertex="1"><mxGeometry x="30" width="210" height="30" as="geometry"><mxRectangle width="210" height="30" as="alternateBounds"/></mxGeometry></mxCell><mxCell id="QZGJcfFz6h8s44CO1jUE-218" value="" style="shape=tableRow;horizontal=0;startSize=0;swimlaneHead=0;swimlaneBody=0;fillColor=none;collapsible=0;dropTarget=0;points=[[0,0.5],[1,0.5]];portConstraint=eastwest;top=0;left=0;right=0;bottom=0;" parent="QZGJcfFz6h8s44CO1jUE-205" vertex="1"><mxGeometry y="180" width="240" height="30" as="geometry"/></mxCell><mxCell id="QZGJcfFz6h8s44CO1jUE-219" value="FK" style="shape=partialRectangle;connectable=0;fillColor=none;top=0;left=0;bottom=0;right=0;fontStyle=0;overflow=hidden;whiteSpace=wrap;html=1;" parent="QZGJcfFz6h8s44CO1jUE-218" vertex="1"><mxGeometry width="30" height="30" as="geometry"><mxRectangle width="30" height="30" as="alternateBounds"/></mxGeometry></mxCell><mxCell id="QZGJcfFz6h8s44CO1jUE-220" value="collection_id int not null" style="shape=partialRectangle;connectable=0;fillColor=none;top=0;left=0;bottom=0;right=0;align=left;spacingLeft=6;fontStyle=0;overflow=hidden;whiteSpace=wrap;html=1;" parent="QZGJcfFz6h8s44CO1jUE-218" vertex="1"><mxGeometry x="30" width="210" height="30" as="geometry"><mxRectangle width="210" height="30" as="alternateBounds"/></mxGeometry></mxCell><mxCell id="QZGJcfFz6h8s44CO1jUE-260" value="" style="shape=tableRow;horizontal=0;startSize=0;swimlaneHead=0;swimlaneBody=0;fillColor=none;collapsible=0;dropTarget=0;points=[[0,0.5],[1,0.5]];portConstraint=eastwest;top=0;left=0;right=0;bottom=0;" parent="QZGJcfFz6h8s44CO1jUE-205" vertex="1"><mxGeometry y="210" width="240" height="30" as="geometry"/></mxCell><mxCell id="QZGJcfFz6h8s44CO1jUE-261" value="" style="shape=partialRectangle;connectable=0;fillColor=none;top=0;left=0;bottom=0;right=0;editable=1;overflow=hidden;" parent="QZGJcfFz6h8s44CO1jUE-260" vertex="1"><mxGeometry width="30" height="30" as="geometry"><mxRectangle width="30" height="30" as="alternateBounds"/></mxGeometry></mxCell><mxCell id="QZGJcfFz6h8s44CO1jUE-262" value="date_uploaded date not null" style="shape=partialRectangle;connectable=0;fillColor=none;top=0;left=0;bottom=0;right=0;align=left;spacingLeft=6;overflow=hidden;" parent="QZGJcfFz6h8s44CO1jUE-260" vertex="1"><mxGeometry x="30" width="210" height="30" as="geometry"><mxRectangle width="210" height="30" as="alternateBounds"/></mxGeometry></mxCell><mxCell id="QZGJcfFz6h8s44CO1jUE-284" value="" style="shape=tableRow;horizontal=0;startSize=0;swimlaneHead=0;swimlaneBody=0;fillColor=none;collapsible=0;dropTarget=0;points=[[0,0.5],[1,0.5]];portConstraint=eastwest;top=0;left=0;right=0;bottom=0;" parent="QZGJcfFz6h8s44CO1jUE-205" vertex="1"><mxGeometry y="240" width="240" height="30" as="geometry"/></mxCell><mxCell id="QZGJcfFz6h8s44CO1jUE-285" value="" style="shape=partialRectangle;connectable=0;fillColor=none;top=0;left=0;bottom=0;right=0;editable=1;overflow=hidden;" parent="QZGJcfFz6h8s44CO1jUE-284" vertex="1"><mxGeometry width="30" height="30" as="geometry"><mxRectangle width="30" height="30" as="alternateBounds"/></mxGeometry></mxCell><mxCell id="QZGJcfFz6h8s44CO1jUE-286" value="video_url text not null" style="shape=partialRectangle;connectable=0;fillColor=none;top=0;left=0;bottom=0;right=0;align=left;spacingLeft=6;overflow=hidden;" parent="QZGJcfFz6h8s44CO1jUE-284" vertex="1"><mxGeometry x="30" width="210" height="30" as="geometry"><mxRectangle width="210" height="30" as="alternateBounds"/></mxGeometry></mxCell><mxCell id="QZGJcfFz6h8s44CO1jUE-287" value="" style="shape=tableRow;horizontal=0;startSize=0;swimlaneHead=0;swimlaneBody=0;fillColor=none;collapsible=0;dropTarget=0;points=[[0,0.5],[1,0.5]];portConstraint=eastwest;top=0;left=0;right=0;bottom=0;" parent="QZGJcfFz6h8s44CO1jUE-205" vertex="1"><mxGeometry y="270" width="240" height="30" as="geometry"/></mxCell><mxCell id="QZGJcfFz6h8s44CO1jUE-288" value="" style="shape=partialRectangle;connectable=0;fillColor=none;top=0;left=0;bottom=0;right=0;editable=1;overflow=hidden;" parent="QZGJcfFz6h8s44CO1jUE-287" vertex="1"><mxGeometry width="30" height="30" as="geometry"><mxRectangle width="30" height="30" as="alternateBounds"/></mxGeometry></mxCell><mxCell id="QZGJcfFz6h8s44CO1jUE-289" value="video_cover_url text not null" style="shape=partialRectangle;connectable=0;fillColor=none;top=0;left=0;bottom=0;right=0;align=left;spacingLeft=6;overflow=hidden;" parent="QZGJcfFz6h8s44CO1jUE-287" vertex="1"><mxGeometry x="30" width="210" height="30" as="geometry"><mxRectangle width="210" height="30" as="alternateBounds"/></mxGeometry></mxCell><mxCell id="21" value="" style="shape=tableRow;horizontal=0;startSize=0;swimlaneHead=0;swimlaneBody=0;fillColor=none;collapsible=0;dropTarget=0;points=[[0,0.5],[1,0.5]];portConstraint=eastwest;top=0;left=0;right=0;bottom=0;" parent="QZGJcfFz6h8s44CO1jUE-205" vertex="1"><mxGeometry y="300" width="240" height="30" as="geometry"/></mxCell><mxCell id="22" value="" style="shape=partialRectangle;connectable=0;fillColor=none;top=0;left=0;bottom=0;right=0;editable=1;overflow=hidden;" parent="21" vertex="1"><mxGeometry width="30" height="30" as="geometry"><mxRectangle width="30" height="30" as="alternateBounds"/></mxGeometry></mxCell><mxCell id="23" value="title text not null" style="shape=partialRectangle;connectable=0;fillColor=none;top=0;left=0;bottom=0;right=0;align=left;spacingLeft=6;overflow=hidden;" parent="21" vertex="1"><mxGeometry x="30" width="210" height="30" as="geometry"><mxRectangle width="210" height="30" as="alternateBounds"/></mxGeometry></mxCell><mxCell id="QZGJcfFz6h8s44CO1jUE-221" value="video_tag" style="shape=table;startSize=30;container=1;collapsible=1;childLayout=tableLayout;fixedRows=1;rowLines=0;fontStyle=1;align=center;resizeLast=1;" parent="1" vertex="1"><mxGeometry x="365" y="940" width="240" height="130" as="geometry"/></mxCell><mxCell id="QZGJcfFz6h8s44CO1jUE-222" value="" style="shape=tableRow;horizontal=0;startSize=0;swimlaneHead=0;swimlaneBody=0;fillColor=none;collapsible=0;dropTarget=0;points=[[0,0.5],[1,0.5]];portConstraint=eastwest;top=0;left=0;right=0;bottom=1;" parent="QZGJcfFz6h8s44CO1jUE-221" vertex="1"><mxGeometry y="30" width="240" height="30" as="geometry"/></mxCell><mxCell id="QZGJcfFz6h8s44CO1jUE-223" value="PK" style="shape=partialRectangle;connectable=0;fillColor=none;top=0;left=0;bottom=0;right=0;fontStyle=1;overflow=hidden;whiteSpace=wrap;html=1;" parent="QZGJcfFz6h8s44CO1jUE-222" vertex="1"><mxGeometry width="30" height="30" as="geometry"><mxRectangle width="30" height="30" as="alternateBounds"/></mxGeometry></mxCell><mxCell id="QZGJcfFz6h8s44CO1jUE-224" value="video_tag_id int not null" style="shape=partialRectangle;connectable=0;fillColor=none;top=0;left=0;bottom=0;right=0;align=left;spacingLeft=6;fontStyle=5;overflow=hidden;whiteSpace=wrap;html=1;" parent="QZGJcfFz6h8s44CO1jUE-222" vertex="1"><mxGeometry x="30" width="210" height="30" as="geometry"><mxRectangle width="210" height="30" as="alternateBounds"/></mxGeometry></mxCell><mxCell id="QZGJcfFz6h8s44CO1jUE-225" value="" style="shape=tableRow;horizontal=0;startSize=0;swimlaneHead=0;swimlaneBody=0;fillColor=none;collapsible=0;dropTarget=0;points=[[0,0.5],[1,0.5]];portConstraint=eastwest;top=0;left=0;right=0;bottom=0;" parent="QZGJcfFz6h8s44CO1jUE-221" vertex="1"><mxGeometry y="60" width="240" height="30" as="geometry"/></mxCell><mxCell id="QZGJcfFz6h8s44CO1jUE-226" value="FK" style="shape=partialRectangle;connectable=0;fillColor=none;top=0;left=0;bottom=0;right=0;fontStyle=0;overflow=hidden;whiteSpace=wrap;html=1;" parent="QZGJcfFz6h8s44CO1jUE-225" vertex="1"><mxGeometry width="30" height="30" as="geometry"><mxRectangle width="30" height="30" as="alternateBounds"/></mxGeometry></mxCell><mxCell id="QZGJcfFz6h8s44CO1jUE-227" value="video_id text not null" style="shape=partialRectangle;connectable=0;fillColor=none;top=0;left=0;bottom=0;right=0;align=left;spacingLeft=6;fontStyle=0;overflow=hidden;whiteSpace=wrap;html=1;" parent="QZGJcfFz6h8s44CO1jUE-225" vertex="1"><mxGeometry x="30" width="210" height="30" as="geometry"><mxRectangle width="210" height="30" as="alternateBounds"/></mxGeometry></mxCell><mxCell id="QZGJcfFz6h8s44CO1jUE-228" value="" style="shape=tableRow;horizontal=0;startSize=0;swimlaneHead=0;swimlaneBody=0;fillColor=none;collapsible=0;dropTarget=0;points=[[0,0.5],[1,0.5]];portConstraint=eastwest;top=0;left=0;right=0;bottom=0;" parent="QZGJcfFz6h8s44CO1jUE-221" vertex="1"><mxGeometry y="90" width="240" height="30" as="geometry"/></mxCell><mxCell id="QZGJcfFz6h8s44CO1jUE-229" value="" style="shape=partialRectangle;connectable=0;fillColor=none;top=0;left=0;bottom=0;right=0;editable=1;overflow=hidden;" parent="QZGJcfFz6h8s44CO1jUE-228" vertex="1"><mxGeometry width="30" height="30" as="geometry"><mxRectangle width="30" height="30" as="alternateBounds"/></mxGeometry></mxCell><mxCell id="QZGJcfFz6h8s44CO1jUE-230" value="tag_text text not null" style="shape=partialRectangle;connectable=0;fillColor=none;top=0;left=0;bottom=0;right=0;align=left;spacingLeft=6;overflow=hidden;" parent="QZGJcfFz6h8s44CO1jUE-228" vertex="1"><mxGeometry x="30" width="210" height="30" as="geometry"><mxRectangle width="210" height="30" as="alternateBounds"/></mxGeometry></mxCell><mxCell id="QZGJcfFz6h8s44CO1jUE-231" value="Video" style="text;html=1;align=center;verticalAlign=middle;resizable=0;points=[];autosize=1;strokeColor=none;fillColor=none;" parent="1" vertex="1"><mxGeometry x="270" y="910" width="50" height="30" as="geometry"/></mxCell><mxCell id="QZGJcfFz6h8s44CO1jUE-252" style="edgeStyle=orthogonalEdgeStyle;rounded=0;orthogonalLoop=1;jettySize=auto;html=1;entryX=1;entryY=0.5;entryDx=0;entryDy=0;exitX=0;exitY=0.5;exitDx=0;exitDy=0;" parent="1" source="QZGJcfFz6h8s44CO1jUE-143" target="QZGJcfFz6h8s44CO1jUE-163" edge="1"><mxGeometry relative="1" as="geometry"><Array as="points"><mxPoint x="70" y="745"/><mxPoint x="70" y="695"/><mxPoint x="30" y="695"/><mxPoint x="30" y="575"/></Array></mxGeometry></mxCell><mxCell id="QZGJcfFz6h8s44CO1jUE-253" style="edgeStyle=orthogonalEdgeStyle;rounded=0;orthogonalLoop=1;jettySize=auto;html=1;entryX=0;entryY=0.5;entryDx=0;entryDy=0;" parent="1" source="QZGJcfFz6h8s44CO1jUE-209" target="C-vyLk0tnHw3VtMMgP7b-24" edge="1"><mxGeometry relative="1" as="geometry"/></mxCell><mxCell id="QZGJcfFz6h8s44CO1jUE-254" style="edgeStyle=orthogonalEdgeStyle;rounded=0;orthogonalLoop=1;jettySize=auto;html=1;entryX=1;entryY=0.5;entryDx=0;entryDy=0;exitX=0;exitY=0.5;exitDx=0;exitDy=0;" parent="1" source="QZGJcfFz6h8s44CO1jUE-218" target="QZGJcfFz6h8s44CO1jUE-163" edge="1"><mxGeometry relative="1" as="geometry"><Array as="points"><mxPoint x="80" y="977"/><mxPoint x="30" y="977"/><mxPoint x="30" y="575"/></Array></mxGeometry></mxCell><mxCell id="QZGJcfFz6h8s44CO1jUE-255" style="edgeStyle=orthogonalEdgeStyle;rounded=0;orthogonalLoop=1;jettySize=auto;html=1;entryX=1;entryY=0.5;entryDx=0;entryDy=0;" parent="1" source="QZGJcfFz6h8s44CO1jUE-222" target="QZGJcfFz6h8s44CO1jUE-206" edge="1"><mxGeometry relative="1" as="geometry"/></mxCell><mxCell id="QZGJcfFz6h8s44CO1jUE-263" value="note_reply" style="shape=table;startSize=30;container=1;collapsible=1;childLayout=tableLayout;fixedRows=1;rowLines=0;fontStyle=1;align=center;resizeLast=1;" parent="1" vertex="1"><mxGeometry x="640" y="580" width="240" height="220" as="geometry"/></mxCell><mxCell id="QZGJcfFz6h8s44CO1jUE-264" value="" style="shape=tableRow;horizontal=0;startSize=0;swimlaneHead=0;swimlaneBody=0;fillColor=none;collapsible=0;dropTarget=0;points=[[0,0.5],[1,0.5]];portConstraint=eastwest;top=0;left=0;right=0;bottom=1;" parent="QZGJcfFz6h8s44CO1jUE-263" vertex="1"><mxGeometry y="30" width="240" height="30" as="geometry"/></mxCell><mxCell id="QZGJcfFz6h8s44CO1jUE-265" value="PK" style="shape=partialRectangle;connectable=0;fillColor=none;top=0;left=0;bottom=0;right=0;fontStyle=1;overflow=hidden;whiteSpace=wrap;html=1;" parent="QZGJcfFz6h8s44CO1jUE-264" vertex="1"><mxGeometry width="30" height="30" as="geometry"><mxRectangle width="30" height="30" as="alternateBounds"/></mxGeometry></mxCell><mxCell id="QZGJcfFz6h8s44CO1jUE-266" value="note_reply_id int not null" style="shape=partialRectangle;connectable=0;fillColor=none;top=0;left=0;bottom=0;right=0;align=left;spacingLeft=6;fontStyle=5;overflow=hidden;whiteSpace=wrap;html=1;" parent="QZGJcfFz6h8s44CO1jUE-264" vertex="1"><mxGeometry x="30" width="210" height="30" as="geometry"><mxRectangle width="210" height="30" as="alternateBounds"/></mxGeometry></mxCell><mxCell id="QZGJcfFz6h8s44CO1jUE-267" value="" style="shape=tableRow;horizontal=0;startSize=0;swimlaneHead=0;swimlaneBody=0;fillColor=none;collapsible=0;dropTarget=0;points=[[0,0.5],[1,0.5]];portConstraint=eastwest;top=0;left=0;right=0;bottom=0;" parent="QZGJcfFz6h8s44CO1jUE-263" vertex="1"><mxGeometry y="60" width="240" height="30" as="geometry"/></mxCell><mxCell id="QZGJcfFz6h8s44CO1jUE-268" value="FK" style="shape=partialRectangle;connectable=0;fillColor=none;top=0;left=0;bottom=0;right=0;fontStyle=0;overflow=hidden;whiteSpace=wrap;html=1;" parent="QZGJcfFz6h8s44CO1jUE-267" vertex="1"><mxGeometry width="30" height="30" as="geometry"><mxRectangle width="30" height="30" as="alternateBounds"/></mxGeometry></mxCell><mxCell id="QZGJcfFz6h8s44CO1jUE-269" value="note_id text not null" style="shape=partialRectangle;connectable=0;fillColor=none;top=0;left=0;bottom=0;right=0;align=left;spacingLeft=6;fontStyle=0;overflow=hidden;whiteSpace=wrap;html=1;" parent="QZGJcfFz6h8s44CO1jUE-267" vertex="1"><mxGeometry x="30" width="210" height="30" as="geometry"><mxRectangle width="210" height="30" as="alternateBounds"/></mxGeometry></mxCell><mxCell id="QZGJcfFz6h8s44CO1jUE-270" value="" style="shape=tableRow;horizontal=0;startSize=0;swimlaneHead=0;swimlaneBody=0;fillColor=none;collapsible=0;dropTarget=0;points=[[0,0.5],[1,0.5]];portConstraint=eastwest;top=0;left=0;right=0;bottom=0;" parent="QZGJcfFz6h8s44CO1jUE-263" vertex="1"><mxGeometry y="90" width="240" height="30" as="geometry"/></mxCell><mxCell id="QZGJcfFz6h8s44CO1jUE-271" value="FK" style="shape=partialRectangle;connectable=0;fillColor=none;top=0;left=0;bottom=0;right=0;editable=1;overflow=hidden;" parent="QZGJcfFz6h8s44CO1jUE-270" vertex="1"><mxGeometry width="30" height="30" as="geometry"><mxRectangle width="30" height="30" as="alternateBounds"/></mxGeometry></mxCell><mxCell id="QZGJcfFz6h8s44CO1jUE-272" value="note_reply_to int not null" style="shape=partialRectangle;connectable=0;fillColor=none;top=0;left=0;bottom=0;right=0;align=left;spacingLeft=6;overflow=hidden;" parent="QZGJcfFz6h8s44CO1jUE-270" vertex="1"><mxGeometry x="30" width="210" height="30" as="geometry"><mxRectangle width="210" height="30" as="alternateBounds"/></mxGeometry></mxCell><mxCell id="QZGJcfFz6h8s44CO1jUE-375" value="" style="shape=tableRow;horizontal=0;startSize=0;swimlaneHead=0;swimlaneBody=0;fillColor=none;collapsible=0;dropTarget=0;points=[[0,0.5],[1,0.5]];portConstraint=eastwest;top=0;left=0;right=0;bottom=0;" parent="QZGJcfFz6h8s44CO1jUE-263" vertex="1"><mxGeometry y="120" width="240" height="30" as="geometry"/></mxCell><mxCell id="QZGJcfFz6h8s44CO1jUE-376" value="" style="shape=partialRectangle;connectable=0;fillColor=none;top=0;left=0;bottom=0;right=0;editable=1;overflow=hidden;" parent="QZGJcfFz6h8s44CO1jUE-375" vertex="1"><mxGeometry width="30" height="30" as="geometry"><mxRectangle width="30" height="30" as="alternateBounds"/></mxGeometry></mxCell><mxCell id="QZGJcfFz6h8s44CO1jUE-377" value="reply_content text not null" style="shape=partialRectangle;connectable=0;fillColor=none;top=0;left=0;bottom=0;right=0;align=left;spacingLeft=6;overflow=hidden;" parent="QZGJcfFz6h8s44CO1jUE-375" vertex="1"><mxGeometry x="30" width="210" height="30" as="geometry"><mxRectangle width="210" height="30" as="alternateBounds"/></mxGeometry></mxCell><mxCell id="QZGJcfFz6h8s44CO1jUE-477" value="" style="shape=tableRow;horizontal=0;startSize=0;swimlaneHead=0;swimlaneBody=0;fillColor=none;collapsible=0;dropTarget=0;points=[[0,0.5],[1,0.5]];portConstraint=eastwest;top=0;left=0;right=0;bottom=0;" parent="QZGJcfFz6h8s44CO1jUE-263" vertex="1"><mxGeometry y="150" width="240" height="30" as="geometry"/></mxCell><mxCell id="QZGJcfFz6h8s44CO1jUE-478" value="" style="shape=partialRectangle;connectable=0;fillColor=none;top=0;left=0;bottom=0;right=0;editable=1;overflow=hidden;" parent="QZGJcfFz6h8s44CO1jUE-477" vertex="1"><mxGeometry width="30" height="30" as="geometry"><mxRectangle width="30" height="30" as="alternateBounds"/></mxGeometry></mxCell><mxCell id="QZGJcfFz6h8s44CO1jUE-479" value="reply_date date not null" style="shape=partialRectangle;connectable=0;fillColor=none;top=0;left=0;bottom=0;right=0;align=left;spacingLeft=6;overflow=hidden;" parent="QZGJcfFz6h8s44CO1jUE-477" vertex="1"><mxGeometry x="30" width="210" height="30" as="geometry"><mxRectangle width="210" height="30" as="alternateBounds"/></mxGeometry></mxCell><mxCell id="14" value="" style="shape=tableRow;horizontal=0;startSize=0;swimlaneHead=0;swimlaneBody=0;fillColor=none;collapsible=0;dropTarget=0;points=[[0,0.5],[1,0.5]];portConstraint=eastwest;top=0;left=0;right=0;bottom=0;" parent="QZGJcfFz6h8s44CO1jUE-263" vertex="1"><mxGeometry y="180" width="240" height="30" as="geometry"/></mxCell><mxCell id="15" value="FK" style="shape=partialRectangle;connectable=0;fillColor=none;top=0;left=0;bottom=0;right=0;fontStyle=0;overflow=hidden;" parent="14" vertex="1"><mxGeometry width="30" height="30" as="geometry"><mxRectangle width="30" height="30" as="alternateBounds"/></mxGeometry></mxCell><mxCell id="16" value="author int not null " style="shape=partialRectangle;connectable=0;fillColor=none;top=0;left=0;bottom=0;right=0;align=left;spacingLeft=6;fontStyle=0;overflow=hidden;" parent="14" vertex="1"><mxGeometry x="30" width="210" height="30" as="geometry"><mxRectangle width="210" height="30" as="alternateBounds"/></mxGeometry></mxCell><mxCell id="QZGJcfFz6h8s44CO1jUE-273" style="edgeStyle=orthogonalEdgeStyle;rounded=0;orthogonalLoop=1;jettySize=auto;html=1;entryX=1;entryY=0.5;entryDx=0;entryDy=0;" parent="1" source="QZGJcfFz6h8s44CO1jUE-267" target="QZGJcfFz6h8s44CO1jUE-114" edge="1"><mxGeometry relative="1" as="geometry"><Array as="points"><mxPoint x="760" y="605"/><mxPoint x="620" y="605"/><mxPoint x="620" y="560"/><mxPoint x="350" y="560"/><mxPoint x="350" y="575"/><mxPoint x="320" y="575"/></Array></mxGeometry></mxCell><mxCell id="QZGJcfFz6h8s44CO1jUE-302" style="edgeStyle=orthogonalEdgeStyle;rounded=0;orthogonalLoop=1;jettySize=auto;html=1;entryX=0;entryY=0.5;entryDx=0;entryDy=0;" parent="1" source="QZGJcfFz6h8s44CO1jUE-103" target="QZGJcfFz6h8s44CO1jUE-114" edge="1"><mxGeometry relative="1" as="geometry"><Array as="points"><mxPoint x="40" y="445"/><mxPoint x="40" y="575"/></Array></mxGeometry></mxCell><mxCell id="QZGJcfFz6h8s44CO1jUE-310" style="edgeStyle=orthogonalEdgeStyle;rounded=0;orthogonalLoop=1;jettySize=auto;html=1;entryX=0;entryY=0.5;entryDx=0;entryDy=0;" parent="1" source="QZGJcfFz6h8s44CO1jUE-306" target="C-vyLk0tnHw3VtMMgP7b-24" edge="1"><mxGeometry relative="1" as="geometry"/></mxCell><mxCell id="QZGJcfFz6h8s44CO1jUE-311" value="user_save_video" style="shape=table;startSize=30;container=1;collapsible=1;childLayout=tableLayout;fixedRows=1;rowLines=0;fontStyle=1;align=center;resizeLast=1;" parent="1" vertex="1"><mxGeometry x="360" y="370" width="240" height="160" as="geometry"/></mxCell><mxCell id="QZGJcfFz6h8s44CO1jUE-312" value="" style="shape=tableRow;horizontal=0;startSize=0;swimlaneHead=0;swimlaneBody=0;fillColor=none;collapsible=0;dropTarget=0;points=[[0,0.5],[1,0.5]];portConstraint=eastwest;top=0;left=0;right=0;bottom=1;" parent="QZGJcfFz6h8s44CO1jUE-311" vertex="1"><mxGeometry y="30" width="240" height="30" as="geometry"/></mxCell><mxCell id="QZGJcfFz6h8s44CO1jUE-313" value="PK" style="shape=partialRectangle;connectable=0;fillColor=none;top=0;left=0;bottom=0;right=0;fontStyle=1;overflow=hidden;whiteSpace=wrap;html=1;" parent="QZGJcfFz6h8s44CO1jUE-312" vertex="1"><mxGeometry width="30" height="30" as="geometry"><mxRectangle width="30" height="30" as="alternateBounds"/></mxGeometry></mxCell><mxCell id="QZGJcfFz6h8s44CO1jUE-314" value="user_save_video_id int not null" style="shape=partialRectangle;connectable=0;fillColor=none;top=0;left=0;bottom=0;right=0;align=left;spacingLeft=6;fontStyle=5;overflow=hidden;whiteSpace=wrap;html=1;" parent="QZGJcfFz6h8s44CO1jUE-312" vertex="1"><mxGeometry x="30" width="210" height="30" as="geometry"><mxRectangle width="210" height="30" as="alternateBounds"/></mxGeometry></mxCell><mxCell id="QZGJcfFz6h8s44CO1jUE-315" value="" style="shape=tableRow;horizontal=0;startSize=0;swimlaneHead=0;swimlaneBody=0;fillColor=none;collapsible=0;dropTarget=0;points=[[0,0.5],[1,0.5]];portConstraint=eastwest;top=0;left=0;right=0;bottom=0;" parent="QZGJcfFz6h8s44CO1jUE-311" vertex="1"><mxGeometry y="60" width="240" height="30" as="geometry"/></mxCell><mxCell id="QZGJcfFz6h8s44CO1jUE-316" value="FK" style="shape=partialRectangle;connectable=0;fillColor=none;top=0;left=0;bottom=0;right=0;fontStyle=0;overflow=hidden;whiteSpace=wrap;html=1;" parent="QZGJcfFz6h8s44CO1jUE-315" vertex="1"><mxGeometry width="30" height="30" as="geometry"><mxRectangle width="30" height="30" as="alternateBounds"/></mxGeometry></mxCell><mxCell id="QZGJcfFz6h8s44CO1jUE-317" value="video_id text not null" style="shape=partialRectangle;connectable=0;fillColor=none;top=0;left=0;bottom=0;right=0;align=left;spacingLeft=6;fontStyle=0;overflow=hidden;whiteSpace=wrap;html=1;" parent="QZGJcfFz6h8s44CO1jUE-315" vertex="1"><mxGeometry x="30" width="210" height="30" as="geometry"><mxRectangle width="210" height="30" as="alternateBounds"/></mxGeometry></mxCell><mxCell id="QZGJcfFz6h8s44CO1jUE-318" value="" style="shape=tableRow;horizontal=0;startSize=0;swimlaneHead=0;swimlaneBody=0;fillColor=none;collapsible=0;dropTarget=0;points=[[0,0.5],[1,0.5]];portConstraint=eastwest;top=0;left=0;right=0;bottom=0;" parent="QZGJcfFz6h8s44CO1jUE-311" vertex="1"><mxGeometry y="90" width="240" height="30" as="geometry"/></mxCell><mxCell id="QZGJcfFz6h8s44CO1jUE-319" value="FK" style="shape=partialRectangle;connectable=0;fillColor=none;top=0;left=0;bottom=0;right=0;fontStyle=0;overflow=hidden;whiteSpace=wrap;html=1;" parent="QZGJcfFz6h8s44CO1jUE-318" vertex="1"><mxGeometry width="30" height="30" as="geometry"><mxRectangle width="30" height="30" as="alternateBounds"/></mxGeometry></mxCell><mxCell id="QZGJcfFz6h8s44CO1jUE-320" value="author int not null" style="shape=partialRectangle;connectable=0;fillColor=none;top=0;left=0;bottom=0;right=0;align=left;spacingLeft=6;fontStyle=0;overflow=hidden;whiteSpace=wrap;html=1;" parent="QZGJcfFz6h8s44CO1jUE-318" vertex="1"><mxGeometry x="30" width="210" height="30" as="geometry"><mxRectangle width="210" height="30" as="alternateBounds"/></mxGeometry></mxCell><mxCell id="QZGJcfFz6h8s44CO1jUE-324" value="" style="shape=tableRow;horizontal=0;startSize=0;swimlaneHead=0;swimlaneBody=0;fillColor=none;collapsible=0;dropTarget=0;points=[[0,0.5],[1,0.5]];portConstraint=eastwest;top=0;left=0;right=0;bottom=0;" parent="QZGJcfFz6h8s44CO1jUE-311" vertex="1"><mxGeometry y="120" width="240" height="30" as="geometry"/></mxCell><mxCell id="QZGJcfFz6h8s44CO1jUE-325" value="" style="shape=partialRectangle;connectable=0;fillColor=none;top=0;left=0;bottom=0;right=0;editable=1;overflow=hidden;" parent="QZGJcfFz6h8s44CO1jUE-324" vertex="1"><mxGeometry width="30" height="30" as="geometry"><mxRectangle width="30" height="30" as="alternateBounds"/></mxGeometry></mxCell><mxCell id="QZGJcfFz6h8s44CO1jUE-326" value="folder text not null" style="shape=partialRectangle;connectable=0;fillColor=none;top=0;left=0;bottom=0;right=0;align=left;spacingLeft=6;overflow=hidden;" parent="QZGJcfFz6h8s44CO1jUE-324" vertex="1"><mxGeometry x="30" width="210" height="30" as="geometry"><mxRectangle width="210" height="30" as="alternateBounds"/></mxGeometry></mxCell><mxCell id="QZGJcfFz6h8s44CO1jUE-328" style="edgeStyle=orthogonalEdgeStyle;rounded=0;orthogonalLoop=1;jettySize=auto;html=1;entryX=1;entryY=0.5;entryDx=0;entryDy=0;" parent="1" source="QZGJcfFz6h8s44CO1jUE-318" target="C-vyLk0tnHw3VtMMgP7b-24" edge="1"><mxGeometry relative="1" as="geometry"/></mxCell><mxCell id="QZGJcfFz6h8s44CO1jUE-329" style="edgeStyle=orthogonalEdgeStyle;rounded=0;orthogonalLoop=1;jettySize=auto;html=1;entryX=1;entryY=0.5;entryDx=0;entryDy=0;" parent="1" source="QZGJcfFz6h8s44CO1jUE-315" target="QZGJcfFz6h8s44CO1jUE-206" edge="1"><mxGeometry relative="1" as="geometry"/></mxCell><mxCell id="QZGJcfFz6h8s44CO1jUE-331" style="edgeStyle=orthogonalEdgeStyle;rounded=0;orthogonalLoop=1;jettySize=auto;html=1;entryX=1;entryY=0.5;entryDx=0;entryDy=0;" parent="1" source="QZGJcfFz6h8s44CO1jUE-270" target="QZGJcfFz6h8s44CO1jUE-114" edge="1"><mxGeometry relative="1" as="geometry"><Array as="points"><mxPoint x="620" y="670"/><mxPoint x="620" y="560"/><mxPoint x="340" y="560"/><mxPoint x="340" y="625"/></Array></mxGeometry></mxCell><mxCell id="QZGJcfFz6h8s44CO1jUE-342" value="video_reply" style="shape=table;startSize=18;container=1;collapsible=1;childLayout=tableLayout;fixedRows=1;rowLines=0;fontStyle=1;align=center;resizeLast=1;" parent="1" vertex="1"><mxGeometry x="640" y="940" width="240" height="220" as="geometry"/></mxCell><mxCell id="QZGJcfFz6h8s44CO1jUE-343" value="" style="shape=tableRow;horizontal=0;startSize=0;swimlaneHead=0;swimlaneBody=0;fillColor=none;collapsible=0;dropTarget=0;points=[[0,0.5],[1,0.5]];portConstraint=eastwest;top=0;left=0;right=0;bottom=1;" parent="QZGJcfFz6h8s44CO1jUE-342" vertex="1"><mxGeometry y="18" width="240" height="30" as="geometry"/></mxCell><mxCell id="QZGJcfFz6h8s44CO1jUE-344" value="PK" style="shape=partialRectangle;connectable=0;fillColor=none;top=0;left=0;bottom=0;right=0;fontStyle=1;overflow=hidden;whiteSpace=wrap;html=1;" parent="QZGJcfFz6h8s44CO1jUE-343" vertex="1"><mxGeometry width="30" height="30" as="geometry"><mxRectangle width="30" height="30" as="alternateBounds"/></mxGeometry></mxCell><mxCell id="QZGJcfFz6h8s44CO1jUE-345" value="video_reply_id int not null" style="shape=partialRectangle;connectable=0;fillColor=none;top=0;left=0;bottom=0;right=0;align=left;spacingLeft=6;fontStyle=5;overflow=hidden;whiteSpace=wrap;html=1;" parent="QZGJcfFz6h8s44CO1jUE-343" vertex="1"><mxGeometry x="30" width="210" height="30" as="geometry"><mxRectangle width="210" height="30" as="alternateBounds"/></mxGeometry></mxCell><mxCell id="QZGJcfFz6h8s44CO1jUE-346" value="" style="shape=tableRow;horizontal=0;startSize=0;swimlaneHead=0;swimlaneBody=0;fillColor=none;collapsible=0;dropTarget=0;points=[[0,0.5],[1,0.5]];portConstraint=eastwest;top=0;left=0;right=0;bottom=0;" parent="QZGJcfFz6h8s44CO1jUE-342" vertex="1"><mxGeometry y="48" width="240" height="30" as="geometry"/></mxCell><mxCell id="QZGJcfFz6h8s44CO1jUE-347" value="FK" style="shape=partialRectangle;connectable=0;fillColor=none;top=0;left=0;bottom=0;right=0;fontStyle=0;overflow=hidden;whiteSpace=wrap;html=1;" parent="QZGJcfFz6h8s44CO1jUE-346" vertex="1"><mxGeometry width="30" height="30" as="geometry"><mxRectangle width="30" height="30" as="alternateBounds"/></mxGeometry></mxCell><mxCell id="QZGJcfFz6h8s44CO1jUE-348" value="video_id text not null" style="shape=partialRectangle;connectable=0;fillColor=none;top=0;left=0;bottom=0;right=0;align=left;spacingLeft=6;fontStyle=0;overflow=hidden;whiteSpace=wrap;html=1;" parent="QZGJcfFz6h8s44CO1jUE-346" vertex="1"><mxGeometry x="30" width="210" height="30" as="geometry"><mxRectangle width="210" height="30" as="alternateBounds"/></mxGeometry></mxCell><mxCell id="QZGJcfFz6h8s44CO1jUE-349" value="" style="shape=tableRow;horizontal=0;startSize=0;swimlaneHead=0;swimlaneBody=0;fillColor=none;collapsible=0;dropTarget=0;points=[[0,0.5],[1,0.5]];portConstraint=eastwest;top=0;left=0;right=0;bottom=0;" parent="QZGJcfFz6h8s44CO1jUE-342" vertex="1"><mxGeometry y="78" width="240" height="30" as="geometry"/></mxCell><mxCell id="QZGJcfFz6h8s44CO1jUE-350" value="FK" style="shape=partialRectangle;connectable=0;fillColor=none;top=0;left=0;bottom=0;right=0;editable=1;overflow=hidden;" parent="QZGJcfFz6h8s44CO1jUE-349" vertex="1"><mxGeometry width="30" height="30" as="geometry"><mxRectangle width="30" height="30" as="alternateBounds"/></mxGeometry></mxCell><mxCell id="QZGJcfFz6h8s44CO1jUE-351" value="video_reply_to int not null" style="shape=partialRectangle;connectable=0;fillColor=none;top=0;left=0;bottom=0;right=0;align=left;spacingLeft=6;overflow=hidden;" parent="QZGJcfFz6h8s44CO1jUE-349" vertex="1"><mxGeometry x="30" width="210" height="30" as="geometry"><mxRectangle width="210" height="30" as="alternateBounds"/></mxGeometry></mxCell><mxCell id="QZGJcfFz6h8s44CO1jUE-378" value="" style="shape=tableRow;horizontal=0;startSize=0;swimlaneHead=0;swimlaneBody=0;fillColor=none;collapsible=0;dropTarget=0;points=[[0,0.5],[1,0.5]];portConstraint=eastwest;top=0;left=0;right=0;bottom=0;" parent="QZGJcfFz6h8s44CO1jUE-342" vertex="1"><mxGeometry y="108" width="240" height="30" as="geometry"/></mxCell><mxCell id="QZGJcfFz6h8s44CO1jUE-379" value="" style="shape=partialRectangle;connectable=0;fillColor=none;top=0;left=0;bottom=0;right=0;editable=1;overflow=hidden;" parent="QZGJcfFz6h8s44CO1jUE-378" vertex="1"><mxGeometry width="30" height="30" as="geometry"><mxRectangle width="30" height="30" as="alternateBounds"/></mxGeometry></mxCell><mxCell id="QZGJcfFz6h8s44CO1jUE-380" value="reply_content text not null" style="shape=partialRectangle;connectable=0;fillColor=none;top=0;left=0;bottom=0;right=0;align=left;spacingLeft=6;overflow=hidden;" parent="QZGJcfFz6h8s44CO1jUE-378" vertex="1"><mxGeometry x="30" width="210" height="30" as="geometry"><mxRectangle width="210" height="30" as="alternateBounds"/></mxGeometry></mxCell><mxCell id="QZGJcfFz6h8s44CO1jUE-480" value="" style="shape=tableRow;horizontal=0;startSize=0;swimlaneHead=0;swimlaneBody=0;fillColor=none;collapsible=0;dropTarget=0;points=[[0,0.5],[1,0.5]];portConstraint=eastwest;top=0;left=0;right=0;bottom=0;" parent="QZGJcfFz6h8s44CO1jUE-342" vertex="1"><mxGeometry y="138" width="240" height="30" as="geometry"/></mxCell><mxCell id="QZGJcfFz6h8s44CO1jUE-481" value="" style="shape=partialRectangle;connectable=0;fillColor=none;top=0;left=0;bottom=0;right=0;editable=1;overflow=hidden;" parent="QZGJcfFz6h8s44CO1jUE-480" vertex="1"><mxGeometry width="30" height="30" as="geometry"><mxRectangle width="30" height="30" as="alternateBounds"/></mxGeometry></mxCell><mxCell id="QZGJcfFz6h8s44CO1jUE-482" value="reply_date date not null" style="shape=partialRectangle;connectable=0;fillColor=none;top=0;left=0;bottom=0;right=0;align=left;spacingLeft=6;overflow=hidden;" parent="QZGJcfFz6h8s44CO1jUE-480" vertex="1"><mxGeometry x="30" width="210" height="30" as="geometry"><mxRectangle width="210" height="30" as="alternateBounds"/></mxGeometry></mxCell><mxCell id="11" value="" style="shape=tableRow;horizontal=0;startSize=0;swimlaneHead=0;swimlaneBody=0;fillColor=none;collapsible=0;dropTarget=0;points=[[0,0.5],[1,0.5]];portConstraint=eastwest;top=0;left=0;right=0;bottom=0;" parent="QZGJcfFz6h8s44CO1jUE-342" vertex="1"><mxGeometry y="168" width="240" height="30" as="geometry"/></mxCell><mxCell id="12" value="FK" style="shape=partialRectangle;connectable=0;fillColor=none;top=0;left=0;bottom=0;right=0;fontStyle=0;overflow=hidden;" parent="11" vertex="1"><mxGeometry width="30" height="30" as="geometry"><mxRectangle width="30" height="30" as="alternateBounds"/></mxGeometry></mxCell><mxCell id="13" value="author int not null" style="shape=partialRectangle;connectable=0;fillColor=none;top=0;left=0;bottom=0;right=0;align=left;spacingLeft=6;fontStyle=0;overflow=hidden;" parent="11" vertex="1"><mxGeometry x="30" width="210" height="30" as="geometry"><mxRectangle width="210" height="30" as="alternateBounds"/></mxGeometry></mxCell><mxCell id="QZGJcfFz6h8s44CO1jUE-373" style="edgeStyle=orthogonalEdgeStyle;rounded=0;orthogonalLoop=1;jettySize=auto;html=1;entryX=1;entryY=0.5;entryDx=0;entryDy=0;" parent="1" source="QZGJcfFz6h8s44CO1jUE-346" target="QZGJcfFz6h8s44CO1jUE-206" edge="1"><mxGeometry relative="1" as="geometry"><Array as="points"><mxPoint x="610" y="937"/><mxPoint x="610" y="850"/><mxPoint x="320" y="850"/></Array></mxGeometry></mxCell><mxCell id="QZGJcfFz6h8s44CO1jUE-374" style="edgeStyle=orthogonalEdgeStyle;rounded=0;orthogonalLoop=1;jettySize=auto;html=1;entryX=1;entryY=0.5;entryDx=0;entryDy=0;" parent="1" source="QZGJcfFz6h8s44CO1jUE-349" target="QZGJcfFz6h8s44CO1jUE-206" edge="1"><mxGeometry relative="1" as="geometry"><Array as="points"><mxPoint x="610" y="967"/><mxPoint x="610" y="850"/><mxPoint x="320" y="850"/></Array></mxGeometry></mxCell><mxCell id="QZGJcfFz6h8s44CO1jUE-381" value="Forum" style="text;html=1;align=center;verticalAlign=middle;resizable=0;points=[];autosize=1;strokeColor=none;fillColor=none;" parent="1" vertex="1"><mxGeometry x="270" y="1172" width="60" height="30" as="geometry"/></mxCell><mxCell id="QZGJcfFz6h8s44CO1jUE-382" value="post" style="shape=table;startSize=30;container=1;collapsible=1;childLayout=tableLayout;fixedRows=1;rowLines=0;fontStyle=1;align=center;resizeLast=1;" parent="1" vertex="1"><mxGeometry x="80" y="1288" width="240" height="250" as="geometry"/></mxCell><mxCell id="QZGJcfFz6h8s44CO1jUE-383" value="" style="shape=tableRow;horizontal=0;startSize=0;swimlaneHead=0;swimlaneBody=0;fillColor=none;collapsible=0;dropTarget=0;points=[[0,0.5],[1,0.5]];portConstraint=eastwest;top=0;left=0;right=0;bottom=1;" parent="QZGJcfFz6h8s44CO1jUE-382" vertex="1"><mxGeometry y="30" width="240" height="30" as="geometry"/></mxCell><mxCell id="QZGJcfFz6h8s44CO1jUE-384" value="PK" style="shape=partialRectangle;connectable=0;fillColor=none;top=0;left=0;bottom=0;right=0;fontStyle=1;overflow=hidden;whiteSpace=wrap;html=1;" parent="QZGJcfFz6h8s44CO1jUE-383" vertex="1"><mxGeometry width="30" height="30" as="geometry"><mxRectangle width="30" height="30" as="alternateBounds"/></mxGeometry></mxCell><mxCell id="QZGJcfFz6h8s44CO1jUE-385" value="post_id text not null" style="shape=partialRectangle;connectable=0;fillColor=none;top=0;left=0;bottom=0;right=0;align=left;spacingLeft=6;fontStyle=5;overflow=hidden;whiteSpace=wrap;html=1;" parent="QZGJcfFz6h8s44CO1jUE-383" vertex="1"><mxGeometry x="30" width="210" height="30" as="geometry"><mxRectangle width="210" height="30" as="alternateBounds"/></mxGeometry></mxCell><mxCell id="QZGJcfFz6h8s44CO1jUE-386" value="" style="shape=tableRow;horizontal=0;startSize=0;swimlaneHead=0;swimlaneBody=0;fillColor=none;collapsible=0;dropTarget=0;points=[[0,0.5],[1,0.5]];portConstraint=eastwest;top=0;left=0;right=0;bottom=0;" parent="QZGJcfFz6h8s44CO1jUE-382" vertex="1"><mxGeometry y="60" width="240" height="30" as="geometry"/></mxCell><mxCell id="QZGJcfFz6h8s44CO1jUE-387" value="FK" style="shape=partialRectangle;connectable=0;fillColor=none;top=0;left=0;bottom=0;right=0;fontStyle=0;overflow=hidden;whiteSpace=wrap;html=1;" parent="QZGJcfFz6h8s44CO1jUE-386" vertex="1"><mxGeometry width="30" height="30" as="geometry"><mxRectangle width="30" height="30" as="alternateBounds"/></mxGeometry></mxCell><mxCell id="QZGJcfFz6h8s44CO1jUE-388" value="author int not null" style="shape=partialRectangle;connectable=0;fillColor=none;top=0;left=0;bottom=0;right=0;align=left;spacingLeft=6;fontStyle=0;overflow=hidden;whiteSpace=wrap;html=1;" parent="QZGJcfFz6h8s44CO1jUE-386" vertex="1"><mxGeometry x="30" width="210" height="30" as="geometry"><mxRectangle width="210" height="30" as="alternateBounds"/></mxGeometry></mxCell><mxCell id="QZGJcfFz6h8s44CO1jUE-389" value="" style="shape=tableRow;horizontal=0;startSize=0;swimlaneHead=0;swimlaneBody=0;fillColor=none;collapsible=0;dropTarget=0;points=[[0,0.5],[1,0.5]];portConstraint=eastwest;top=0;left=0;right=0;bottom=0;" parent="QZGJcfFz6h8s44CO1jUE-382" vertex="1"><mxGeometry y="90" width="240" height="30" as="geometry"/></mxCell><mxCell id="QZGJcfFz6h8s44CO1jUE-390" value="" style="shape=partialRectangle;connectable=0;fillColor=none;top=0;left=0;bottom=0;right=0;editable=1;overflow=hidden;" parent="QZGJcfFz6h8s44CO1jUE-389" vertex="1"><mxGeometry width="30" height="30" as="geometry"><mxRectangle width="30" height="30" as="alternateBounds"/></mxGeometry></mxCell><mxCell id="QZGJcfFz6h8s44CO1jUE-391" value="like_count int not null default 0" style="shape=partialRectangle;connectable=0;fillColor=none;top=0;left=0;bottom=0;right=0;align=left;spacingLeft=6;overflow=hidden;" parent="QZGJcfFz6h8s44CO1jUE-389" vertex="1"><mxGeometry x="30" width="210" height="30" as="geometry"><mxRectangle width="210" height="30" as="alternateBounds"/></mxGeometry></mxCell><mxCell id="QZGJcfFz6h8s44CO1jUE-436" value="" style="shape=tableRow;horizontal=0;startSize=0;swimlaneHead=0;swimlaneBody=0;fillColor=none;collapsible=0;dropTarget=0;points=[[0,0.5],[1,0.5]];portConstraint=eastwest;top=0;left=0;right=0;bottom=0;" parent="QZGJcfFz6h8s44CO1jUE-382" vertex="1"><mxGeometry y="120" width="240" height="30" as="geometry"/></mxCell><mxCell id="QZGJcfFz6h8s44CO1jUE-437" value="" style="shape=partialRectangle;connectable=0;fillColor=none;top=0;left=0;bottom=0;right=0;editable=1;overflow=hidden;" parent="QZGJcfFz6h8s44CO1jUE-436" vertex="1"><mxGeometry width="30" height="30" as="geometry"><mxRectangle width="30" height="30" as="alternateBounds"/></mxGeometry></mxCell><mxCell id="QZGJcfFz6h8s44CO1jUE-438" value="view_count int not null default 0" style="shape=partialRectangle;connectable=0;fillColor=none;top=0;left=0;bottom=0;right=0;align=left;spacingLeft=6;overflow=hidden;" parent="QZGJcfFz6h8s44CO1jUE-436" vertex="1"><mxGeometry x="30" width="210" height="30" as="geometry"><mxRectangle width="210" height="30" as="alternateBounds"/></mxGeometry></mxCell><mxCell id="QZGJcfFz6h8s44CO1jUE-398" value="" style="shape=tableRow;horizontal=0;startSize=0;swimlaneHead=0;swimlaneBody=0;fillColor=none;collapsible=0;dropTarget=0;points=[[0,0.5],[1,0.5]];portConstraint=eastwest;top=0;left=0;right=0;bottom=0;" parent="QZGJcfFz6h8s44CO1jUE-382" vertex="1"><mxGeometry y="150" width="240" height="30" as="geometry"/></mxCell><mxCell id="QZGJcfFz6h8s44CO1jUE-399" value="" style="shape=partialRectangle;connectable=0;fillColor=none;top=0;left=0;bottom=0;right=0;editable=1;overflow=hidden;" parent="QZGJcfFz6h8s44CO1jUE-398" vertex="1"><mxGeometry width="30" height="30" as="geometry"><mxRectangle width="30" height="30" as="alternateBounds"/></mxGeometry></mxCell><mxCell id="QZGJcfFz6h8s44CO1jUE-400" value="date_uploaded date not null" style="shape=partialRectangle;connectable=0;fillColor=none;top=0;left=0;bottom=0;right=0;align=left;spacingLeft=6;overflow=hidden;" parent="QZGJcfFz6h8s44CO1jUE-398" vertex="1"><mxGeometry x="30" width="210" height="30" as="geometry"><mxRectangle width="210" height="30" as="alternateBounds"/></mxGeometry></mxCell><mxCell id="QZGJcfFz6h8s44CO1jUE-450" value="" style="shape=tableRow;horizontal=0;startSize=0;swimlaneHead=0;swimlaneBody=0;fillColor=none;collapsible=0;dropTarget=0;points=[[0,0.5],[1,0.5]];portConstraint=eastwest;top=0;left=0;right=0;bottom=0;" parent="QZGJcfFz6h8s44CO1jUE-382" vertex="1"><mxGeometry y="180" width="240" height="30" as="geometry"/></mxCell><mxCell id="QZGJcfFz6h8s44CO1jUE-451" value="" style="shape=partialRectangle;connectable=0;fillColor=none;top=0;left=0;bottom=0;right=0;editable=1;overflow=hidden;" parent="QZGJcfFz6h8s44CO1jUE-450" vertex="1"><mxGeometry width="30" height="30" as="geometry"><mxRectangle width="30" height="30" as="alternateBounds"/></mxGeometry></mxCell><mxCell id="QZGJcfFz6h8s44CO1jUE-452" value="post_content text not null" style="shape=partialRectangle;connectable=0;fillColor=none;top=0;left=0;bottom=0;right=0;align=left;spacingLeft=6;overflow=hidden;" parent="QZGJcfFz6h8s44CO1jUE-450" vertex="1"><mxGeometry x="30" width="210" height="30" as="geometry"><mxRectangle width="210" height="30" as="alternateBounds"/></mxGeometry></mxCell><mxCell id="QZGJcfFz6h8s44CO1jUE-454" value="" style="shape=tableRow;horizontal=0;startSize=0;swimlaneHead=0;swimlaneBody=0;fillColor=none;collapsible=0;dropTarget=0;points=[[0,0.5],[1,0.5]];portConstraint=eastwest;top=0;left=0;right=0;bottom=0;" parent="QZGJcfFz6h8s44CO1jUE-382" vertex="1"><mxGeometry y="210" width="240" height="30" as="geometry"/></mxCell><mxCell id="QZGJcfFz6h8s44CO1jUE-455" value="" style="shape=partialRectangle;connectable=0;fillColor=none;top=0;left=0;bottom=0;right=0;editable=1;overflow=hidden;" parent="QZGJcfFz6h8s44CO1jUE-454" vertex="1"><mxGeometry width="30" height="30" as="geometry"><mxRectangle width="30" height="30" as="alternateBounds"/></mxGeometry></mxCell><mxCell id="QZGJcfFz6h8s44CO1jUE-456" value="post_type text not null" style="shape=partialRectangle;connectable=0;fillColor=none;top=0;left=0;bottom=0;right=0;align=left;spacingLeft=6;overflow=hidden;" parent="QZGJcfFz6h8s44CO1jUE-454" vertex="1"><mxGeometry x="30" width="210" height="30" as="geometry"><mxRectangle width="210" height="30" as="alternateBounds"/></mxGeometry></mxCell><mxCell id="QZGJcfFz6h8s44CO1jUE-407" style="edgeStyle=orthogonalEdgeStyle;rounded=0;orthogonalLoop=1;jettySize=auto;html=1;entryX=0;entryY=0.5;entryDx=0;entryDy=0;" parent="1" source="QZGJcfFz6h8s44CO1jUE-386" target="C-vyLk0tnHw3VtMMgP7b-24" edge="1"><mxGeometry relative="1" as="geometry"/></mxCell><mxCell id="QZGJcfFz6h8s44CO1jUE-439" value="post_tag" style="shape=table;startSize=30;container=1;collapsible=1;childLayout=tableLayout;fixedRows=1;rowLines=0;fontStyle=1;align=center;resizeLast=1;" parent="1" vertex="1"><mxGeometry x="360" y="1288" width="240" height="130.00000000000023" as="geometry"/></mxCell><mxCell id="QZGJcfFz6h8s44CO1jUE-440" value="" style="shape=tableRow;horizontal=0;startSize=0;swimlaneHead=0;swimlaneBody=0;fillColor=none;collapsible=0;dropTarget=0;points=[[0,0.5],[1,0.5]];portConstraint=eastwest;top=0;left=0;right=0;bottom=1;" parent="QZGJcfFz6h8s44CO1jUE-439" vertex="1"><mxGeometry y="30" width="240" height="30" as="geometry"/></mxCell><mxCell id="QZGJcfFz6h8s44CO1jUE-441" value="PK" style="shape=partialRectangle;connectable=0;fillColor=none;top=0;left=0;bottom=0;right=0;fontStyle=1;overflow=hidden;whiteSpace=wrap;html=1;" parent="QZGJcfFz6h8s44CO1jUE-440" vertex="1"><mxGeometry width="30" height="30" as="geometry"><mxRectangle width="30" height="30" as="alternateBounds"/></mxGeometry></mxCell><mxCell id="QZGJcfFz6h8s44CO1jUE-442" value="post_tag_id int not null" style="shape=partialRectangle;connectable=0;fillColor=none;top=0;left=0;bottom=0;right=0;align=left;spacingLeft=6;fontStyle=5;overflow=hidden;whiteSpace=wrap;html=1;" parent="QZGJcfFz6h8s44CO1jUE-440" vertex="1"><mxGeometry x="30" width="210" height="30" as="geometry"><mxRectangle width="210" height="30" as="alternateBounds"/></mxGeometry></mxCell><mxCell id="QZGJcfFz6h8s44CO1jUE-443" value="" style="shape=tableRow;horizontal=0;startSize=0;swimlaneHead=0;swimlaneBody=0;fillColor=none;collapsible=0;dropTarget=0;points=[[0,0.5],[1,0.5]];portConstraint=eastwest;top=0;left=0;right=0;bottom=0;" parent="QZGJcfFz6h8s44CO1jUE-439" vertex="1"><mxGeometry y="60" width="240" height="30" as="geometry"/></mxCell><mxCell id="QZGJcfFz6h8s44CO1jUE-444" value="FK" style="shape=partialRectangle;connectable=0;fillColor=none;top=0;left=0;bottom=0;right=0;fontStyle=0;overflow=hidden;whiteSpace=wrap;html=1;" parent="QZGJcfFz6h8s44CO1jUE-443" vertex="1"><mxGeometry width="30" height="30" as="geometry"><mxRectangle width="30" height="30" as="alternateBounds"/></mxGeometry></mxCell><mxCell id="QZGJcfFz6h8s44CO1jUE-445" value="post_id text not null" style="shape=partialRectangle;connectable=0;fillColor=none;top=0;left=0;bottom=0;right=0;align=left;spacingLeft=6;fontStyle=0;overflow=hidden;whiteSpace=wrap;html=1;" parent="QZGJcfFz6h8s44CO1jUE-443" vertex="1"><mxGeometry x="30" width="210" height="30" as="geometry"><mxRectangle width="210" height="30" as="alternateBounds"/></mxGeometry></mxCell><mxCell id="QZGJcfFz6h8s44CO1jUE-446" value="" style="shape=tableRow;horizontal=0;startSize=0;swimlaneHead=0;swimlaneBody=0;fillColor=none;collapsible=0;dropTarget=0;points=[[0,0.5],[1,0.5]];portConstraint=eastwest;top=0;left=0;right=0;bottom=0;" parent="QZGJcfFz6h8s44CO1jUE-439" vertex="1"><mxGeometry y="90" width="240" height="30" as="geometry"/></mxCell><mxCell id="QZGJcfFz6h8s44CO1jUE-447" value="" style="shape=partialRectangle;connectable=0;fillColor=none;top=0;left=0;bottom=0;right=0;editable=1;overflow=hidden;" parent="QZGJcfFz6h8s44CO1jUE-446" vertex="1"><mxGeometry width="30" height="30" as="geometry"><mxRectangle width="30" height="30" as="alternateBounds"/></mxGeometry></mxCell><mxCell id="QZGJcfFz6h8s44CO1jUE-448" value="tag_text text not null" style="shape=partialRectangle;connectable=0;fillColor=none;top=0;left=0;bottom=0;right=0;align=left;spacingLeft=6;overflow=hidden;" parent="QZGJcfFz6h8s44CO1jUE-446" vertex="1"><mxGeometry x="30" width="210" height="30" as="geometry"><mxRectangle width="210" height="30" as="alternateBounds"/></mxGeometry></mxCell><mxCell id="QZGJcfFz6h8s44CO1jUE-449" style="edgeStyle=orthogonalEdgeStyle;rounded=0;orthogonalLoop=1;jettySize=auto;html=1;entryX=1;entryY=0.5;entryDx=0;entryDy=0;" parent="1" source="QZGJcfFz6h8s44CO1jUE-443" target="QZGJcfFz6h8s44CO1jUE-383" edge="1"><mxGeometry relative="1" as="geometry"/></mxCell><mxCell id="QZGJcfFz6h8s44CO1jUE-458" value="&lt;ul&gt;&lt;li&gt;Announcemnent&lt;/li&gt;&lt;li&gt;Share&lt;/li&gt;&lt;li&gt;Help&lt;/li&gt;&lt;li&gt;Other&lt;/li&gt;&lt;/ul&gt;" style="text;strokeColor=none;fillColor=none;html=1;whiteSpace=wrap;verticalAlign=middle;overflow=hidden;" parent="1" vertex="1"><mxGeometry x="-110" y="1380" width="140" height="80" as="geometry"/></mxCell><mxCell id="QZGJcfFz6h8s44CO1jUE-459" value="post type" style="text;html=1;align=center;verticalAlign=middle;resizable=0;points=[];autosize=1;strokeColor=none;fillColor=none;" parent="1" vertex="1"><mxGeometry x="-80" y="1358" width="70" height="30" as="geometry"/></mxCell><mxCell id="QZGJcfFz6h8s44CO1jUE-460" value="post_reply" style="shape=table;startSize=30;container=1;collapsible=1;childLayout=tableLayout;fixedRows=1;rowLines=0;fontStyle=1;align=center;resizeLast=1;" parent="1" vertex="1"><mxGeometry x="640" y="1288" width="240" height="190" as="geometry"/></mxCell><mxCell id="QZGJcfFz6h8s44CO1jUE-461" value="" style="shape=tableRow;horizontal=0;startSize=0;swimlaneHead=0;swimlaneBody=0;fillColor=none;collapsible=0;dropTarget=0;points=[[0,0.5],[1,0.5]];portConstraint=eastwest;top=0;left=0;right=0;bottom=1;" parent="QZGJcfFz6h8s44CO1jUE-460" vertex="1"><mxGeometry y="30" width="240" height="30" as="geometry"/></mxCell><mxCell id="QZGJcfFz6h8s44CO1jUE-462" value="PK" style="shape=partialRectangle;connectable=0;fillColor=none;top=0;left=0;bottom=0;right=0;fontStyle=1;overflow=hidden;whiteSpace=wrap;html=1;" parent="QZGJcfFz6h8s44CO1jUE-461" vertex="1"><mxGeometry width="30" height="30" as="geometry"><mxRectangle width="30" height="30" as="alternateBounds"/></mxGeometry></mxCell><mxCell id="QZGJcfFz6h8s44CO1jUE-463" value="post_reply_id int not null" style="shape=partialRectangle;connectable=0;fillColor=none;top=0;left=0;bottom=0;right=0;align=left;spacingLeft=6;fontStyle=5;overflow=hidden;whiteSpace=wrap;html=1;" parent="QZGJcfFz6h8s44CO1jUE-461" vertex="1"><mxGeometry x="30" width="210" height="30" as="geometry"><mxRectangle width="210" height="30" as="alternateBounds"/></mxGeometry></mxCell><mxCell id="QZGJcfFz6h8s44CO1jUE-464" value="" style="shape=tableRow;horizontal=0;startSize=0;swimlaneHead=0;swimlaneBody=0;fillColor=none;collapsible=0;dropTarget=0;points=[[0,0.5],[1,0.5]];portConstraint=eastwest;top=0;left=0;right=0;bottom=0;" parent="QZGJcfFz6h8s44CO1jUE-460" vertex="1"><mxGeometry y="60" width="240" height="30" as="geometry"/></mxCell><mxCell id="QZGJcfFz6h8s44CO1jUE-465" value="FK" style="shape=partialRectangle;connectable=0;fillColor=none;top=0;left=0;bottom=0;right=0;fontStyle=0;overflow=hidden;whiteSpace=wrap;html=1;" parent="QZGJcfFz6h8s44CO1jUE-464" vertex="1"><mxGeometry width="30" height="30" as="geometry"><mxRectangle width="30" height="30" as="alternateBounds"/></mxGeometry></mxCell><mxCell id="QZGJcfFz6h8s44CO1jUE-466" value="post_id text not null" style="shape=partialRectangle;connectable=0;fillColor=none;top=0;left=0;bottom=0;right=0;align=left;spacingLeft=6;fontStyle=0;overflow=hidden;whiteSpace=wrap;html=1;" parent="QZGJcfFz6h8s44CO1jUE-464" vertex="1"><mxGeometry x="30" width="210" height="30" as="geometry"><mxRectangle width="210" height="30" as="alternateBounds"/></mxGeometry></mxCell><mxCell id="QZGJcfFz6h8s44CO1jUE-467" value="" style="shape=tableRow;horizontal=0;startSize=0;swimlaneHead=0;swimlaneBody=0;fillColor=none;collapsible=0;dropTarget=0;points=[[0,0.5],[1,0.5]];portConstraint=eastwest;top=0;left=0;right=0;bottom=0;" parent="QZGJcfFz6h8s44CO1jUE-460" vertex="1"><mxGeometry y="90" width="240" height="30" as="geometry"/></mxCell><mxCell id="QZGJcfFz6h8s44CO1jUE-468" value="FK" style="shape=partialRectangle;connectable=0;fillColor=none;top=0;left=0;bottom=0;right=0;editable=1;overflow=hidden;" parent="QZGJcfFz6h8s44CO1jUE-467" vertex="1"><mxGeometry width="30" height="30" as="geometry"><mxRectangle width="30" height="30" as="alternateBounds"/></mxGeometry></mxCell><mxCell id="QZGJcfFz6h8s44CO1jUE-469" value="post_reply_to int not null" style="shape=partialRectangle;connectable=0;fillColor=none;top=0;left=0;bottom=0;right=0;align=left;spacingLeft=6;overflow=hidden;" parent="QZGJcfFz6h8s44CO1jUE-467" vertex="1"><mxGeometry x="30" width="210" height="30" as="geometry"><mxRectangle width="210" height="30" as="alternateBounds"/></mxGeometry></mxCell><mxCell id="QZGJcfFz6h8s44CO1jUE-470" value="" style="shape=tableRow;horizontal=0;startSize=0;swimlaneHead=0;swimlaneBody=0;fillColor=none;collapsible=0;dropTarget=0;points=[[0,0.5],[1,0.5]];portConstraint=eastwest;top=0;left=0;right=0;bottom=0;" parent="QZGJcfFz6h8s44CO1jUE-460" vertex="1"><mxGeometry y="120" width="240" height="30" as="geometry"/></mxCell><mxCell id="QZGJcfFz6h8s44CO1jUE-471" value="" style="shape=partialRectangle;connectable=0;fillColor=none;top=0;left=0;bottom=0;right=0;editable=1;overflow=hidden;" parent="QZGJcfFz6h8s44CO1jUE-470" vertex="1"><mxGeometry width="30" height="30" as="geometry"><mxRectangle width="30" height="30" as="alternateBounds"/></mxGeometry></mxCell><mxCell id="QZGJcfFz6h8s44CO1jUE-472" value="reply_content text not null" style="shape=partialRectangle;connectable=0;fillColor=none;top=0;left=0;bottom=0;right=0;align=left;spacingLeft=6;overflow=hidden;" parent="QZGJcfFz6h8s44CO1jUE-470" vertex="1"><mxGeometry x="30" width="210" height="30" as="geometry"><mxRectangle width="210" height="30" as="alternateBounds"/></mxGeometry></mxCell><mxCell id="8" value="" style="shape=tableRow;horizontal=0;startSize=0;swimlaneHead=0;swimlaneBody=0;fillColor=none;collapsible=0;dropTarget=0;points=[[0,0.5],[1,0.5]];portConstraint=eastwest;top=0;left=0;right=0;bottom=0;" parent="QZGJcfFz6h8s44CO1jUE-460" vertex="1"><mxGeometry y="150" width="240" height="30" as="geometry"/></mxCell><mxCell id="9" value="FK" style="shape=partialRectangle;connectable=0;fillColor=none;top=0;left=0;bottom=0;right=0;editable=1;overflow=hidden;" parent="8" vertex="1"><mxGeometry width="30" height="30" as="geometry"><mxRectangle width="30" height="30" as="alternateBounds"/></mxGeometry></mxCell><mxCell id="10" value="author int not null" style="shape=partialRectangle;connectable=0;fillColor=none;top=0;left=0;bottom=0;right=0;align=left;spacingLeft=6;overflow=hidden;" parent="8" vertex="1"><mxGeometry x="30" width="210" height="30" as="geometry"><mxRectangle width="210" height="30" as="alternateBounds"/></mxGeometry></mxCell><mxCell id="QZGJcfFz6h8s44CO1jUE-474" style="edgeStyle=orthogonalEdgeStyle;rounded=0;orthogonalLoop=1;jettySize=auto;html=1;entryX=1;entryY=0.5;entryDx=0;entryDy=0;" parent="1" source="QZGJcfFz6h8s44CO1jUE-464" target="QZGJcfFz6h8s44CO1jUE-383" edge="1"><mxGeometry relative="1" as="geometry"><Array as="points"><mxPoint x="620" y="1285"/><mxPoint x="620" y="1200"/><mxPoint x="340" y="1200"/><mxPoint x="340" y="1255"/></Array></mxGeometry></mxCell><mxCell id="QZGJcfFz6h8s44CO1jUE-476" style="edgeStyle=orthogonalEdgeStyle;rounded=0;orthogonalLoop=1;jettySize=auto;html=1;entryX=1;entryY=0.5;entryDx=0;entryDy=0;" parent="1" source="QZGJcfFz6h8s44CO1jUE-467" target="QZGJcfFz6h8s44CO1jUE-383" edge="1"><mxGeometry relative="1" as="geometry"><Array as="points"><mxPoint x="620" y="1315"/><mxPoint x="620" y="1190"/><mxPoint x="340" y="1190"/><mxPoint x="340" y="1255"/></Array></mxGeometry></mxCell></root></mxGraphModel></diagram></mxfile>